<svg xmlns="http://www.w3.org/2000/svg" width="170.295" height="96.8" viewBox="0 0 170.295 96.8">
  <g id="Logo-White" transform="translate(-293 -2156)">
    <g id="Group_2" data-name="Group 2" transform="translate(293 2156)">
      <path id="Path_1" data-name="Path 1" d="M206.255.294,231.573,25.71a1.393,1.393,0,0,1-.3,1.573,1.538,1.538,0,0,1-1.685.393L205.346,3.463,181.386,27.779l-1.551-2.541L204.626.294A1.267,1.267,0,0,1,206.255.294Z" transform="translate(-149.928 0)" fill="#f6761d"/>
      <g id="Group_1" data-name="Group 1" transform="translate(0 19.638)">
        <path id="Path_2" data-name="Path 2" d="M692.495,147.747l-1.915.979c-.15-.346-.268-.636-.4-.92a5.522,5.522,0,0,0-4.439-3.215,25.3,25.3,0,0,0-3.718-.343c-3.97-.043-7.942-.016-11.913-.015-.138,0-.277.013-.471.024v19.111H667.75V122.915h.563q6.339,0,12.679,0a26.619,26.619,0,0,1,7.157.805,8.3,8.3,0,0,1,6.377,7.47,14.838,14.838,0,0,1-.228,5.561,8.978,8.978,0,0,1-5.837,6.354c-.272.107-.546.207-.959.363A6.388,6.388,0,0,1,692.495,147.747Zm-22.83-5.189c.148.012.272.031.4.03,4.281-.012,8.563-.016,12.844-.044a14.223,14.223,0,0,0,4.388-.705,7.334,7.334,0,0,0,5.247-5.578,12.4,12.4,0,0,0,.121-4.708,7.248,7.248,0,0,0-5.076-6.249,14.711,14.711,0,0,0-4.611-.629c-4.353-.05-8.706-.032-13.059-.039a1.788,1.788,0,0,0-.25.035Z" transform="translate(-556.701 -121.981)" fill="#fff"/>
        <path id="Path_3" data-name="Path 3" d="M276.007,187.654h-1.783V169.84h-25.3v17.806h-1.841V152.089H248.9v16.018H274.21V152.085h1.8Z" transform="translate(-205.994 -146.269)" fill="#fff"/>
        <path id="Path_4" data-name="Path 4" d="M479.589,163.2c-.576,0-1.1.016-1.617-.014-.1-.006-.236-.175-.282-.3-.847-2.231-1.683-4.467-2.523-6.7q-5.792-15.408-11.585-30.816c-.043-.114-.1-.223-.188-.429-.189.48-.347.87-.5,1.264q-6.376,16.7-12.75,33.407c-.409,1.071-.826,2.139-1.211,3.219a.475.475,0,0,1-.555.375c-.449-.023-.9-.006-1.406-.006.406-1.066.793-2.08,1.178-3.094q7.021-18.481,14.034-36.966a.526.526,0,0,1,.613-.42c.549.038,1.227-.155,1.616.107.366.248.433.955.624,1.464q6.153,16.421,12.307,32.842c.4,1.056.869,2.083,1.263,3.14C478.961,161.217,479.253,162.186,479.589,163.2Z" transform="translate(-372.641 -121.79)" fill="#fff"/>
        <path id="Path_5" data-name="Path 5" d="M809.858,308.405H807.8c-.009-.156-.023-.295-.023-.434,0-3.163,0-6.325-.008-9.488a.533.533,0,0,1,.365-.583c.556-.235,1.1-.506,1.72-.8Z" transform="translate(-673.438 -267.016)" fill="#fff"/>
        <path id="Path_6" data-name="Path 6" d="M31.593,141.062H18.521V139.44c.16-.009.311-.025.461-.025q6.979,0,13.958-.005c.3,0,.513.011.521.412a30.172,30.172,0,0,1-.968,9.261,13.626,13.626,0,0,1-10.986,10.071,19.015,19.015,0,0,1-10.758-.676,14.706,14.706,0,0,1-7.612-6.643,21.6,21.6,0,0,1-2.824-8.6A43.909,43.909,0,0,1,0,137.866,25.667,25.667,0,0,1,2.528,126.28c2.158-4.248,5.365-7.255,10.048-8.347a19.377,19.377,0,0,1,13,1.2,11.772,11.772,0,0,1,4.273,3.344,15.258,15.258,0,0,1,1.535,2.252,21.02,21.02,0,0,1,.945,2.415l-1.715.839c-.086-.246-.157-.445-.226-.645a11.379,11.379,0,0,0-9.142-7.934,17.777,17.777,0,0,0-8.627.292,13.461,13.461,0,0,0-7.991,6.745,21.661,21.661,0,0,0-2.494,8.215,31.966,31.966,0,0,0,.447,10.455,18.771,18.771,0,0,0,3.319,7.435,12.878,12.878,0,0,0,8.059,5.113,16.69,16.69,0,0,0,8.933-.555c4.415-1.58,7.055-4.823,8.221-9.366a24.031,24.031,0,0,0,.53-6.465A1.364,1.364,0,0,0,31.593,141.062Z" transform="translate(0 -117.337)" fill="#fff"/>
      </g>
      <path id="Path_7" data-name="Path 7" d="M672.824,93.557,669.84,99.55l3.251,6.5s-.813.614-3.916.914c0,0-6.716.637-10.2,0s-4.876-1.715-6.915-6.232l-2.9,7.221,4.063,7.76s-7.595,8.884-45.983,21.693c5.881-.644,9.161-1.153,9.161-1.153s9.383-.689,23.76-7.386,15.515-10.862,15.515-10.862a4.834,4.834,0,0,0-.14-5.948,82.323,82.323,0,0,0,12.523.345s7.336-1,7.957-9.513C676.533,97.857,672.824,93.557,672.824,93.557Z" transform="translate(-506.261 -77.899)" fill="#f6761d"/>
      <path id="Path_8" data-name="Path 8" d="M945.97,229.954l5.364,4.2-2.549,4.247-4.566-3.461-1.973,3.169-5.408-4.18,2.615-4.18,4.521,3.663Z" transform="translate(-781.039 -191.299)" fill="#f6761d"/>
      <path id="Path_9" data-name="Path 9" d="M972.033,280.73l4.95,3.835-2.2,3.94-5.024-3.985Z" transform="translate(-808.483 -233.745)" fill="#f6761d"/>
    </g>
    <g id="Group_15917" data-name="Group 15917" transform="translate(395.644 2227.698)">
      <rect id="Rectangle_1" data-name="Rectangle 1" width="67" height="25" rx="5" transform="translate(-0.144 0.102)" fill="#f6761d"/>
      <path id="Path_11014" data-name="Path 11014" d="M6.218-22.363a3.912,3.912,0,0,0,2.964-1.349,3.219,3.219,0,0,0,.686-1.88,2.674,2.674,0,0,0-.6-1.88,19.22,19.22,0,0,0-2.566-2.013,22.422,22.422,0,0,1-2.256-1.7,2.026,2.026,0,0,1-.288-.818,1.871,1.871,0,0,1,.487-1.172,2.153,2.153,0,0,1,1.77-.553A2.371,2.371,0,0,1,8.585-31.9l1.128-.243a3.211,3.211,0,0,0-1.195-2.035,3.372,3.372,0,0,0-2.1-.73,3.131,3.131,0,0,0-2.61.929,3.029,3.029,0,0,0-.841,1.991A2.66,2.66,0,0,0,3.475-30.5a12.544,12.544,0,0,0,2.544,1.969c.044,0,.31.265.376.288a17.947,17.947,0,0,1,2.013,1.526,1.574,1.574,0,0,1,.31,1.04,2.242,2.242,0,0,1-.42,1.217,2.64,2.64,0,0,1-2.079.929A2.485,2.485,0,0,1,3.63-25.5l-1.15.243A3.388,3.388,0,0,0,3.5-23.337,3.9,3.9,0,0,0,6.218-22.363ZM18.3-34.8,14.2-22.43h1.239c.4-1.283.885-2.743,1.327-4H21l1.305,4h1.261L19.447-34.8Zm-1.128,7.167c.376-1.106.664-2.079,1.018-3.141.2-.619.487-1.349.686-1.991a1.63,1.63,0,0,1,.088.31c.575,1.681,1.04,3.141,1.615,4.822ZM30.906-34.8,26.813-22.43h1.239c.4-1.283.885-2.743,1.327-4H33.6l1.305,4H36.17L32.056-34.8Zm-1.128,7.167c.376-1.106.664-2.079,1.018-3.141.2-.619.487-1.349.686-1.991a1.63,1.63,0,0,1,.088.31c.575,1.681,1.04,3.141,1.615,4.822Zm14.379,5.265a3.912,3.912,0,0,0,2.964-1.349,3.219,3.219,0,0,0,.686-1.88,2.674,2.674,0,0,0-.6-1.88,19.22,19.22,0,0,0-2.566-2.013,22.422,22.422,0,0,1-2.256-1.7,2.026,2.026,0,0,1-.288-.818,1.871,1.871,0,0,1,.487-1.172,2.153,2.153,0,0,1,1.77-.553A2.371,2.371,0,0,1,46.523-31.9l1.128-.243a3.211,3.211,0,0,0-1.195-2.035,3.372,3.372,0,0,0-2.1-.73,3.131,3.131,0,0,0-2.61.929,3.029,3.029,0,0,0-.841,1.991,2.66,2.66,0,0,0,.509,1.482,12.544,12.544,0,0,0,2.544,1.969c.044,0,.31.265.376.288a17.947,17.947,0,0,1,2.013,1.526,1.574,1.574,0,0,1,.31,1.04,2.242,2.242,0,0,1-.42,1.217,2.64,2.64,0,0,1-2.079.929A2.485,2.485,0,0,1,41.568-25.5l-1.15.243a3.388,3.388,0,0,0,1.018,1.925A3.9,3.9,0,0,0,44.156-22.363Z" transform="translate(8.336 40.988)" fill="#fff"/>
    </g>
  </g>
</svg>
