<svg xmlns="http://www.w3.org/2000/svg" width="567.66" height="434.555" viewBox="0 0 567.66 434.555">
  <g id="Group_15915" data-name="Group 15915" transform="translate(-185.633 -293.387)">
    <path id="Path_192" data-name="Path 192" d="M309.366,1360.069s-117.759-216.875-28.631-266.913c71.109-39.921,133.485,29.941,209.585-18.714,98.178-62.769,172.6-20.747,225.8,57.387,39.921,58.634,61.065,96.562,81.089,142.218,31.188,71.109-34.93,87.327-34.93,87.327Z" transform="translate(-52.279 -638.653)" fill="#ffe7d1"/>
    <path id="Path_214" data-name="Path 214" d="M844.2,1782.339H367.556a3.993,3.993,0,0,1,0-7.986H844.2a3.993,3.993,0,0,1,0,7.986Z" transform="translate(-118.265 -1054.397)" fill="#f68d2f"/>
    <g id="Group_15914" data-name="Group 15914" transform="translate(185.633 293.387)">
      <g id="Leaf" transform="matrix(0.966, -0.259, 0.259, 0.966, 59.951, 49.902)">
        <g id="Group_209" data-name="Group 209" transform="translate(0 0)">
          <g id="Group_208" data-name="Group 208">
            <g id="Group_207" data-name="Group 207">
              <path id="Path_246" data-name="Path 246" d="M80.637,137.979c20.354-13.324,25.522-38.833,25.3-61.877-.038-3.848.488-7.89-1.281-11.307s-6.036-5.823-9.563-4.287c-2.925,1.273-4.267,4.565-5.952,7.273a22.679,22.679,0,0,1-9.344,8.39c-2.511,1.213-5.6,1.915-8.015.524-3.314-1.91-3.6-6.5-3.479-10.322q.328-10.686.659-21.372c.118-3.823.226-7.725-.891-11.382s-3.7-7.091-7.356-8.2-8.268.88-9.138,4.6c-.36,1.549-.078,3.173-.225,4.757s-.939,3.322-2.478,3.727c-1.557.411-3.078-.709-4.21-1.855-3.9-3.956-6.493-8.993-8.908-14S31,12.532,27.476,8.235,19.015.482,13.475.04,1.943,2.835.41,8.177s1.515,10.9,4.873,15.346A86,86,0,0,0,22.87,40.887c1.2.884,2.5,1.84,2.934,3.268.777,2.567-1.732,5.042-4.3,5.817-2.912.881-6.036.51-9.066.789S6.1,52.277,4.892,55.066c-1.682,3.869,1.53,8.043,4.722,10.8A74.227,74.227,0,0,0,31.229,78.882c2.825,1.1,5.8,2.073,8.049,4.1s3.553,5.5,2.1,8.158-5.04,3.439-8.011,2.822-5.605-2.279-8.421-3.407C19.67,88.447,12.786,88.646,9.266,93.1c-2.314,2.929-2.613,7.082-1.569,10.666s3.27,6.7,5.641,9.588c8.29,10.083,19.018,18.295,31.261,22.816s23.657,5.938,36.038,1.8" fill="#f68d2f"/>
            </g>
          </g>
        </g>
        <g id="Group_213" data-name="Group 213" transform="translate(6.133 3.066)">
          <g id="Group_212" data-name="Group 212" transform="translate(0 0)">
            <g id="Group_211" data-name="Group 211">
              <g id="Group_210" data-name="Group 210">
                <path id="Path_247" data-name="Path 247" d="M0,0A2.8,2.8,0,0,0,.368.373c.279.259.652.6,1.125,1.041.994.908,2.456,2.25,4.293,4.028A143.9,143.9,0,0,1,20.195,21.555c2.8,3.613,5.692,7.694,8.722,12.133s6.221,9.219,9.392,14.357a171.972,171.972,0,0,1,9.156,16.566c1.422,2.957,2.677,6.048,3.959,9.2s2.569,6.343,3.878,9.577A348.33,348.33,0,0,1,68.2,120.5a168.848,168.848,0,0,1,5.687,31.521,123.787,123.787,0,0,1-.165,21.6c-.267,2.538-.512,4.511-.726,5.837-.092.639-.164,1.14-.218,1.517a2.687,2.687,0,0,0-.049.52,3.072,3.072,0,0,0,.122-.507c.07-.375.166-.872.286-1.507.261-1.322.553-3.289.86-5.832a117.914,117.914,0,0,0,.392-21.667,165.853,165.853,0,0,0-5.556-31.657A340.03,340.03,0,0,0,55.963,83.124Q54,78.269,52.08,73.541C50.8,70.4,49.529,67.284,48.1,64.312A170.7,170.7,0,0,0,38.867,47.7c-3.2-5.142-6.417-9.909-9.463-14.344s-5.982-8.505-8.812-12.109a136.285,136.285,0,0,0-14.615-16C4.108,3.492,2.613,2.181,1.589,1.306L.416.318A2.916,2.916,0,0,0,0,0Z" fill="#1a2e35"/>
              </g>
            </g>
          </g>
        </g>
        <g id="Group_217" data-name="Group 217" transform="translate(54.008 25.423)">
          <g id="Group_216" data-name="Group 216" transform="translate(0 0)">
            <g id="Group_215" data-name="Group 215">
              <g id="Group_214" data-name="Group 214">
                <path id="Path_248" data-name="Path 248" d="M.017,41.922A7.625,7.625,0,0,0,.436,40.3c.228-1.052.509-2.585.828-4.48.642-3.8,1.345-9.062,2.1-14.873S4.9,9.889,5.594,6.116c.343-1.887.638-3.411.853-4.464A7.4,7.4,0,0,0,6.7,0a7.523,7.523,0,0,0-.524,1.59c-.3,1.034-.672,2.548-1.079,4.429-.827,3.763-1.687,9.016-2.442,14.835C1.93,26.59,1.271,31.78.767,35.745c-.241,1.79-.441,3.3-.6,4.507A7.5,7.5,0,0,0,.017,41.922Z" fill="#1a2e35"/>
              </g>
            </g>
          </g>
        </g>
        <g id="Group_221" data-name="Group 221" transform="translate(4.451 56.935)">
          <g id="Group_220" data-name="Group 220" transform="translate(0 0)">
            <g id="Group_219" data-name="Group 219">
              <g id="Group_218" data-name="Group 218">
                <path id="Path_249" data-name="Path 249" d="M0,.035A10.757,10.757,0,0,0,1.98.317C3.255.46,5.1.657,7.374.973c4.548.594,10.8,1.633,17.654,3.077s12.991,3.035,17.4,4.3c2.21.619,3.985,1.168,5.212,1.538a10.723,10.723,0,0,0,1.932.518,10.888,10.888,0,0,0-1.844-.781c-1.2-.451-2.959-1.074-5.157-1.757-4.385-1.4-10.528-3.057-17.4-4.52A177.865,177.865,0,0,0,7.434.472C5.147.221,3.286.1,2,.042A10.586,10.586,0,0,0,0,.035Z" fill="#1a2e35"/>
              </g>
            </g>
          </g>
        </g>
        <g id="Group_225" data-name="Group 225" transform="translate(74.375 60.305)">
          <g id="Group_224" data-name="Group 224" transform="translate(0 0)">
            <g id="Group_223" data-name="Group 223">
              <g id="Group_222" data-name="Group 222">
                <path id="Path_250" data-name="Path 250" d="M0,62.176a2.559,2.559,0,0,0,.356-.592c.243-.474.538-1.056.9-1.756.769-1.532,1.826-3.774,3.095-6.561,2.54-5.573,5.8-13.379,9.288-22.043s6.671-16.493,9.092-22.11c1.185-2.732,2.16-4.978,2.885-6.646.311-.724.564-1.323.774-1.812A2.519,2.519,0,0,0,26.617,0a2.5,2.5,0,0,0-.355.592c-.242.474-.539,1.054-.9,1.756C24.6,3.88,23.538,6.121,22.271,8.908c-2.541,5.574-5.805,13.382-9.291,22.049S6.309,47.444,3.891,53.063c-1.187,2.73-2.162,4.975-2.886,6.645C.7,60.434.44,61.033.231,61.52A2.589,2.589,0,0,0,0,62.176Z" fill="#1a2e35"/>
              </g>
            </g>
          </g>
        </g>
        <g id="Group_229" data-name="Group 229" transform="translate(8.718 99.843)">
          <g id="Group_228" data-name="Group 228" transform="translate(0 0)">
            <g id="Group_227" data-name="Group 227">
              <g id="Group_226" data-name="Group 226">
                <path id="Path_251" data-name="Path 251" d="M0,.006A2.569,2.569,0,0,0,.651.29L2.557.971,9.588,3.406c5.935,2.057,14.1,4.993,23.12,8.251s17.223,6.119,23.2,8.058c2.991.97,5.417,1.729,7.106,2.222l1.948.552a2.7,2.7,0,0,0,.693.149,2.5,2.5,0,0,0-.65-.285c-.511-.183-1.142-.407-1.905-.681-1.76-.61-4.137-1.434-7.031-2.435-5.936-2.058-14.1-4.993-23.124-8.252S15.731,4.867,9.748,2.929C6.759,1.959,4.331,1.2,2.642.707L.695.153A2.614,2.614,0,0,0,0,.006Z" fill="#1a2e35"/>
              </g>
            </g>
          </g>
        </g>
      </g>
      <g id="Mobile" transform="translate(144.974 0)">
        <rect id="Rectangle_77" data-name="Rectangle 77" width="210.683" height="426.568" rx="22" transform="translate(0 0)" fill="#17222d"/>
        <rect id="Rectangle_78" data-name="Rectangle 78" width="413.563" height="197.678" rx="17" transform="translate(204.181 6.502) rotate(90)" fill="#f2f2f2"/>
        <path id="Path_302" data-name="Path 302" d="M-226.977,1081.3h-8.491a3.222,3.222,0,0,0-3.14,3.3v3.424a6.444,6.444,0,0,1-6.28,6.6h-78.251a6.445,6.445,0,0,1-6.28-6.6V1084.6a3.222,3.222,0,0,0-3.14-3.3h105.582Z" transform="translate(398.046 -1075.578)" fill="#17222d"/>
        <g id="Group_280" data-name="Group 280" transform="translate(20.653 53.172)">
          <rect id="Rectangle_79" data-name="Rectangle 79" width="172.182" height="45.554" rx="6" fill="#fff"/>
          <g id="Group_278" data-name="Group 278" transform="translate(13.402 9.953)">
            <g id="Group_277" data-name="Group 277">
              <path id="Path_328" data-name="Path 328" d="M-352.033,1158.724a3.424,3.424,0,0,1,.878.127c0-.046.289-.056.818-.119Z" transform="translate(363.479 -1134.45)" fill="#375a64"/>
              <path id="Path_329" data-name="Path 329" d="M-341.315,1140.971a10.959,10.959,0,0,0-2.479-2.457,11.711,11.711,0,0,0-6.878-2.259,11.712,11.712,0,0,0-6.881,2.258,10.938,10.938,0,0,0-2.479,2.458,10.981,10.981,0,0,0-1.6,2.944,11.781,11.781,0,0,0-.536,6.133,11.709,11.709,0,0,0,2.155,4.945c.142.189.293.355.441.53a8.386,8.386,0,0,1,7.042-5.848,5.624,5.624,0,0,1-3.365-5.259,5.463,5.463,0,0,1,5.3-5.607,5.468,5.468,0,0,1,5.257,5.656,5.629,5.629,0,0,1-3.355,5.209,8.24,8.24,0,0,1,6.919,5.83c.142-.17.289-.329.426-.512a11.712,11.712,0,0,0,2.155-4.946,11.767,11.767,0,0,0-.537-6.132A10.977,10.977,0,0,0-341.315,1140.971Z" transform="translate(362.997 -1135.499)" fill="#fafafa"/>
              <path id="Path_330" data-name="Path 330" d="M-339.035,1143.711a11.6,11.6,0,0,0-1.669-3.136,11.609,11.609,0,0,0-2.62-2.624,12.391,12.391,0,0,0-7.317-2.419,12.386,12.386,0,0,0-7.32,2.418,11.6,11.6,0,0,0-2.621,2.624,11.627,11.627,0,0,0-1.671,3.137,12.332,12.332,0,0,0-.5,6.485,12.128,12.128,0,0,0,2.347,5.155,11.958,11.958,0,0,0,6.791,4.349,9.633,9.633,0,0,0,2.2.27,2.9,2.9,0,0,0,.77-.038,3.434,3.434,0,0,0-.878-.126l1.7.007c-.53.064-.822.073-.819.119a2.9,2.9,0,0,0,.77.038,9.585,9.585,0,0,0,2.2-.271,11.952,11.952,0,0,0,6.792-4.348,12.126,12.126,0,0,0,2.346-5.156A12.318,12.318,0,0,0-339.035,1143.711Zm-.118,6.369a11.713,11.713,0,0,1-2.155,4.947c-.137.183-.284.342-.426.512a8.24,8.24,0,0,0-6.919-5.83,5.629,5.629,0,0,0,3.355-5.209,5.468,5.468,0,0,0-5.258-5.656,5.463,5.463,0,0,0-5.3,5.607,5.624,5.624,0,0,0,3.365,5.259,8.386,8.386,0,0,0-7.042,5.848c-.148-.175-.3-.34-.441-.53a11.709,11.709,0,0,1-2.155-4.946,11.78,11.78,0,0,1,.536-6.133A10.983,10.983,0,0,1-360,1141a10.937,10.937,0,0,1,2.479-2.458,11.71,11.71,0,0,1,6.881-2.258,11.71,11.71,0,0,1,6.878,2.259,10.958,10.958,0,0,1,2.479,2.457,10.977,10.977,0,0,1,1.6,2.944A11.767,11.767,0,0,1-339.154,1150.081Z" transform="translate(362.968 -1135.533)" fill="#ccc"/>
            </g>
          </g>
          <g id="Group_279" data-name="Group 279" transform="translate(48.897 15.455)">
            <rect id="Rectangle_80" data-name="Rectangle 80" width="42.234" height="5.487" fill="#ccc"/>
            <rect id="Rectangle_81" data-name="Rectangle 81" width="107.238" height="5.487" transform="translate(0 9.157)" fill="#ccc"/>
          </g>
        </g>
        <g id="Group_284" data-name="Group 284" transform="translate(20.653 158.51)">
          <rect id="Rectangle_82" data-name="Rectangle 82" width="172.182" height="45.554" rx="6" transform="translate(0 0)" fill="#fff"/>
          <g id="Group_282" data-name="Group 282" transform="translate(13.402 9.953)">
            <g id="Group_281" data-name="Group 281">
              <path id="Path_331" data-name="Path 331" d="M-352.033,1259.363a3.414,3.414,0,0,1,.878.127c0-.046.289-.056.818-.119Z" transform="translate(363.479 -1235.089)" fill="#375a64"/>
              <path id="Path_332" data-name="Path 332" d="M-341.315,1241.61a10.95,10.95,0,0,0-2.479-2.457,11.708,11.708,0,0,0-6.878-2.259,11.712,11.712,0,0,0-6.881,2.258,10.946,10.946,0,0,0-2.479,2.458,10.968,10.968,0,0,0-1.6,2.944,11.781,11.781,0,0,0-.536,6.133,11.708,11.708,0,0,0,2.155,4.946c.142.19.293.355.441.531a8.386,8.386,0,0,1,7.042-5.849,5.623,5.623,0,0,1-3.365-5.258,5.463,5.463,0,0,1,5.3-5.607,5.468,5.468,0,0,1,5.257,5.656,5.629,5.629,0,0,1-3.355,5.209,8.241,8.241,0,0,1,6.919,5.831c.142-.17.289-.329.426-.512a11.712,11.712,0,0,0,2.155-4.947,11.767,11.767,0,0,0-.537-6.132A10.964,10.964,0,0,0-341.315,1241.61Z" transform="translate(362.997 -1236.138)" fill="#fafafa"/>
              <path id="Path_333" data-name="Path 333" d="M-339.035,1244.351a11.6,11.6,0,0,0-1.669-3.136,11.6,11.6,0,0,0-2.62-2.624,12.388,12.388,0,0,0-7.317-2.419,12.386,12.386,0,0,0-7.32,2.418,11.585,11.585,0,0,0-2.621,2.624,11.624,11.624,0,0,0-1.671,3.137,12.332,12.332,0,0,0-.5,6.485,12.132,12.132,0,0,0,2.347,5.155,11.956,11.956,0,0,0,6.791,4.349,9.582,9.582,0,0,0,2.2.27,2.929,2.929,0,0,0,.77-.037,3.412,3.412,0,0,0-.878-.127l1.7.007c-.53.064-.822.073-.819.119a2.928,2.928,0,0,0,.77.037,9.54,9.54,0,0,0,2.2-.271,11.951,11.951,0,0,0,6.792-4.348,12.122,12.122,0,0,0,2.346-5.156A12.317,12.317,0,0,0-339.035,1244.351Zm-.118,6.369a11.714,11.714,0,0,1-2.155,4.947c-.137.183-.284.342-.426.512a8.24,8.24,0,0,0-6.919-5.83,5.63,5.63,0,0,0,3.355-5.209,5.469,5.469,0,0,0-5.258-5.656,5.463,5.463,0,0,0-5.3,5.607,5.624,5.624,0,0,0,3.365,5.258,8.385,8.385,0,0,0-7.042,5.849c-.148-.176-.3-.341-.441-.531a11.709,11.709,0,0,1-2.155-4.946,11.78,11.78,0,0,1,.536-6.133,10.98,10.98,0,0,1,1.6-2.944,10.958,10.958,0,0,1,2.479-2.458,11.713,11.713,0,0,1,6.881-2.258,11.711,11.711,0,0,1,6.878,2.259,10.956,10.956,0,0,1,2.479,2.457,10.974,10.974,0,0,1,1.6,2.944A11.767,11.767,0,0,1-339.154,1250.72Z" transform="translate(362.968 -1236.172)" fill="#ccc"/>
            </g>
          </g>
          <g id="Group_283" data-name="Group 283" transform="translate(48.897 15.455)">
            <rect id="Rectangle_83" data-name="Rectangle 83" width="42.234" height="5.487" fill="#ccc"/>
            <rect id="Rectangle_84" data-name="Rectangle 84" width="107.238" height="5.487" transform="translate(0 9.157)" fill="#ccc"/>
          </g>
        </g>
        <g id="Group_288" data-name="Group 288" transform="translate(20.653 211.179)">
          <rect id="Rectangle_85" data-name="Rectangle 85" width="172.182" height="45.554" rx="6" fill="#fff"/>
          <g id="Group_286" data-name="Group 286" transform="translate(13.402 9.954)">
            <g id="Group_285" data-name="Group 285">
              <path id="Path_334" data-name="Path 334" d="M-352.033,1309.682a3.372,3.372,0,0,1,.878.128c0-.047.289-.056.818-.12Z" transform="translate(363.479 -1285.409)" fill="#375a64"/>
              <path id="Path_335" data-name="Path 335" d="M-341.315,1291.93a10.968,10.968,0,0,0-2.479-2.458,11.721,11.721,0,0,0-6.878-2.259,11.719,11.719,0,0,0-6.881,2.258,10.979,10.979,0,0,0-2.479,2.458,10.974,10.974,0,0,0-1.6,2.945,11.781,11.781,0,0,0-.536,6.133,11.714,11.714,0,0,0,2.155,4.945c.142.19.293.355.441.53a8.386,8.386,0,0,1,7.042-5.848,5.623,5.623,0,0,1-3.365-5.259,5.463,5.463,0,0,1,5.3-5.608,5.469,5.469,0,0,1,5.257,5.657,5.631,5.631,0,0,1-3.355,5.209,8.24,8.24,0,0,1,6.919,5.83c.142-.17.289-.329.426-.513a11.705,11.705,0,0,0,2.155-4.945,11.767,11.767,0,0,0-.537-6.132A10.962,10.962,0,0,0-341.315,1291.93Z" transform="translate(362.997 -1286.458)" fill="#fafafa"/>
              <path id="Path_336" data-name="Path 336" d="M-339.035,1294.671a11.62,11.62,0,0,0-1.669-3.137,11.623,11.623,0,0,0-2.62-2.624,12.394,12.394,0,0,0-7.317-2.418,12.392,12.392,0,0,0-7.32,2.417,11.617,11.617,0,0,0-2.621,2.625,11.612,11.612,0,0,0-1.671,3.137,12.331,12.331,0,0,0-.5,6.485,12.134,12.134,0,0,0,2.347,5.155,11.953,11.953,0,0,0,6.791,4.348,9.518,9.518,0,0,0,2.2.27,2.964,2.964,0,0,0,.77-.036,3.375,3.375,0,0,0-.878-.128l1.7.009c-.53.064-.822.072-.819.119a2.964,2.964,0,0,0,.77.036,9.514,9.514,0,0,0,2.2-.27,11.959,11.959,0,0,0,6.792-4.349,12.114,12.114,0,0,0,2.346-5.155A12.316,12.316,0,0,0-339.035,1294.671Zm-.118,6.369a11.708,11.708,0,0,1-2.155,4.946c-.137.183-.284.342-.426.513a8.24,8.24,0,0,0-6.919-5.83,5.632,5.632,0,0,0,3.355-5.209,5.469,5.469,0,0,0-5.258-5.657,5.463,5.463,0,0,0-5.3,5.608,5.624,5.624,0,0,0,3.365,5.259,8.386,8.386,0,0,0-7.042,5.848c-.148-.175-.3-.34-.441-.53a11.713,11.713,0,0,1-2.155-4.946,11.779,11.779,0,0,1,.536-6.132,10.973,10.973,0,0,1,1.6-2.946,10.988,10.988,0,0,1,2.479-2.458,11.719,11.719,0,0,1,6.881-2.258,11.716,11.716,0,0,1,6.878,2.259,10.957,10.957,0,0,1,2.479,2.458,10.956,10.956,0,0,1,1.6,2.944A11.766,11.766,0,0,1-339.154,1301.04Z" transform="translate(362.968 -1286.492)" fill="#ccc"/>
            </g>
          </g>
          <g id="Group_287" data-name="Group 287" transform="translate(48.897 15.455)">
            <rect id="Rectangle_86" data-name="Rectangle 86" width="42.234" height="5.487" fill="#ccc"/>
            <rect id="Rectangle_87" data-name="Rectangle 87" width="107.238" height="5.487" transform="translate(0 9.157)" fill="#ccc"/>
          </g>
        </g>
        <g id="Group_292" data-name="Group 292" transform="translate(20.653 263.848)">
          <rect id="Rectangle_88" data-name="Rectangle 88" width="172.182" height="45.554" rx="6" fill="#fff"/>
          <g id="Group_290" data-name="Group 290" transform="translate(13.402 9.953)">
            <g id="Group_289" data-name="Group 289">
              <path id="Path_337" data-name="Path 337" d="M-352.033,1360a3.41,3.41,0,0,1,.878.127c0-.046.289-.056.818-.119Z" transform="translate(363.479 -1335.728)" fill="#375a64"/>
              <path id="Path_338" data-name="Path 338" d="M-341.315,1342.249a10.961,10.961,0,0,0-2.479-2.456,11.708,11.708,0,0,0-6.878-2.259,11.71,11.71,0,0,0-6.881,2.258,10.962,10.962,0,0,0-2.479,2.457,10.976,10.976,0,0,0-1.6,2.945,11.78,11.78,0,0,0-.536,6.133,11.709,11.709,0,0,0,2.155,4.946c.142.189.293.355.441.531a8.385,8.385,0,0,1,7.042-5.849,5.624,5.624,0,0,1-3.365-5.258,5.463,5.463,0,0,1,5.3-5.607,5.469,5.469,0,0,1,5.257,5.657,5.629,5.629,0,0,1-3.355,5.209,8.24,8.24,0,0,1,6.919,5.83c.142-.17.289-.329.426-.512a11.71,11.71,0,0,0,2.155-4.947,11.766,11.766,0,0,0-.537-6.131A10.973,10.973,0,0,0-341.315,1342.249Z" transform="translate(362.997 -1336.777)" fill="#fafafa"/>
              <path id="Path_339" data-name="Path 339" d="M-339.035,1344.99a11.6,11.6,0,0,0-1.669-3.136,11.611,11.611,0,0,0-2.62-2.624,12.389,12.389,0,0,0-7.317-2.419,12.384,12.384,0,0,0-7.32,2.418,11.582,11.582,0,0,0-2.621,2.624,11.625,11.625,0,0,0-1.671,3.137,12.331,12.331,0,0,0-.5,6.485,12.126,12.126,0,0,0,2.347,5.155,11.956,11.956,0,0,0,6.791,4.349,9.594,9.594,0,0,0,2.2.27,2.929,2.929,0,0,0,.77-.037,3.391,3.391,0,0,0-.878-.127l1.7.007c-.53.064-.822.073-.819.12a2.928,2.928,0,0,0,.77.037,9.59,9.59,0,0,0,2.2-.27,11.958,11.958,0,0,0,6.792-4.349,12.116,12.116,0,0,0,2.346-5.156A12.316,12.316,0,0,0-339.035,1344.99Zm-.118,6.369a11.711,11.711,0,0,1-2.155,4.947c-.137.183-.284.342-.426.512a8.24,8.24,0,0,0-6.919-5.83,5.63,5.63,0,0,0,3.355-5.209,5.469,5.469,0,0,0-5.258-5.656,5.463,5.463,0,0,0-5.3,5.607,5.624,5.624,0,0,0,3.365,5.258,8.386,8.386,0,0,0-7.042,5.849c-.148-.176-.3-.341-.441-.531a11.708,11.708,0,0,1-2.155-4.945,11.78,11.78,0,0,1,.536-6.133,10.977,10.977,0,0,1,1.6-2.944,10.968,10.968,0,0,1,2.479-2.458,11.709,11.709,0,0,1,6.881-2.257,11.707,11.707,0,0,1,6.878,2.259,10.957,10.957,0,0,1,2.479,2.457,10.971,10.971,0,0,1,1.6,2.944A11.767,11.767,0,0,1-339.154,1351.359Z" transform="translate(362.968 -1336.811)" fill="#ccc"/>
            </g>
          </g>
          <g id="Group_291" data-name="Group 291" transform="translate(48.897 15.455)">
            <rect id="Rectangle_89" data-name="Rectangle 89" width="42.234" height="5.487" fill="#ccc"/>
            <rect id="Rectangle_90" data-name="Rectangle 90" width="107.238" height="5.487" transform="translate(0 9.157)" fill="#ccc"/>
          </g>
        </g>
        <g id="Group_296" data-name="Group 296" transform="translate(20.653 316.516)">
          <rect id="Rectangle_91" data-name="Rectangle 91" width="172.182" height="45.554" rx="6" fill="#fff"/>
          <g id="Group_294" data-name="Group 294" transform="translate(13.402 9.954)">
            <g id="Group_293" data-name="Group 293">
              <path id="Path_340" data-name="Path 340" d="M-352.033,1410.321a3.348,3.348,0,0,1,.878.128c0-.047.289-.056.818-.12Z" transform="translate(363.479 -1386.048)" fill="#375a64"/>
              <path id="Path_341" data-name="Path 341" d="M-341.315,1392.569a10.964,10.964,0,0,0-2.479-2.458,11.717,11.717,0,0,0-6.878-2.259,11.709,11.709,0,0,0-6.881,2.259,10.956,10.956,0,0,0-2.479,2.457,10.968,10.968,0,0,0-1.6,2.945,11.78,11.78,0,0,0-.536,6.133,11.715,11.715,0,0,0,2.155,4.946c.142.189.293.355.441.53a8.386,8.386,0,0,1,7.042-5.848,5.624,5.624,0,0,1-3.365-5.259,5.464,5.464,0,0,1,5.3-5.608,5.469,5.469,0,0,1,5.257,5.657,5.631,5.631,0,0,1-3.355,5.209,8.24,8.24,0,0,1,6.919,5.83c.142-.17.289-.33.426-.513a11.706,11.706,0,0,0,2.155-4.946,11.765,11.765,0,0,0-.537-6.131A10.958,10.958,0,0,0-341.315,1392.569Z" transform="translate(362.997 -1387.097)" fill="#fafafa"/>
              <path id="Path_342" data-name="Path 342" d="M-339.035,1395.31a11.622,11.622,0,0,0-1.669-3.137,11.621,11.621,0,0,0-2.62-2.624,12.392,12.392,0,0,0-7.317-2.418,12.39,12.39,0,0,0-7.32,2.417,11.616,11.616,0,0,0-2.621,2.625,11.612,11.612,0,0,0-1.671,3.137,12.333,12.333,0,0,0-.5,6.485,12.133,12.133,0,0,0,2.347,5.155,11.956,11.956,0,0,0,6.791,4.348,9.5,9.5,0,0,0,2.2.27,2.969,2.969,0,0,0,.77-.036,3.369,3.369,0,0,0-.878-.128l1.7.008c-.53.064-.822.072-.819.119a2.968,2.968,0,0,0,.77.036,9.5,9.5,0,0,0,2.2-.27,11.961,11.961,0,0,0,6.792-4.349,12.117,12.117,0,0,0,2.346-5.155A12.316,12.316,0,0,0-339.035,1395.31Zm-.118,6.369a11.709,11.709,0,0,1-2.155,4.946c-.137.183-.284.343-.426.513a8.24,8.24,0,0,0-6.919-5.83,5.632,5.632,0,0,0,3.355-5.209,5.469,5.469,0,0,0-5.258-5.658,5.464,5.464,0,0,0-5.3,5.608,5.624,5.624,0,0,0,3.365,5.259,8.386,8.386,0,0,0-7.042,5.848c-.148-.175-.3-.34-.441-.53a11.715,11.715,0,0,1-2.155-4.945,11.779,11.779,0,0,1,.536-6.133,10.973,10.973,0,0,1,1.6-2.946,10.96,10.96,0,0,1,2.479-2.456,11.711,11.711,0,0,1,6.881-2.259,11.718,11.718,0,0,1,6.878,2.259,10.968,10.968,0,0,1,2.479,2.457,10.961,10.961,0,0,1,1.6,2.945A11.765,11.765,0,0,1-339.154,1401.679Z" transform="translate(362.968 -1387.131)" fill="#ccc"/>
            </g>
          </g>
          <g id="Group_295" data-name="Group 295" transform="translate(48.897 15.455)">
            <rect id="Rectangle_92" data-name="Rectangle 92" width="42.234" height="5.487" fill="#ccc"/>
            <rect id="Rectangle_93" data-name="Rectangle 93" width="107.238" height="5.487" transform="translate(0 9.157)" fill="#ccc"/>
          </g>
        </g>
        <rect id="Rectangle_94" data-name="Rectangle 94" width="172.182" height="45.554" rx="6" transform="translate(20.653 105.841)" fill="#f68d2f"/>
        <g id="Group_298" data-name="Group 298" transform="translate(34.055 115.794)">
          <g id="Group_297" data-name="Group 297">
            <path id="Path_343" data-name="Path 343" d="M-352.033,1209.043a3.386,3.386,0,0,1,.878.128c0-.047.289-.055.818-.119Z" transform="translate(363.479 -1184.77)" fill="#375a64"/>
            <path id="Path_344" data-name="Path 344" d="M-341.315,1191.292a10.968,10.968,0,0,0-2.479-2.458,11.717,11.717,0,0,0-6.878-2.259,11.717,11.717,0,0,0-6.881,2.258,10.955,10.955,0,0,0-2.479,2.458,10.969,10.969,0,0,0-1.6,2.945,11.78,11.78,0,0,0-.536,6.133,11.714,11.714,0,0,0,2.155,4.946c.142.189.293.355.441.53a8.385,8.385,0,0,1,7.042-5.848,5.624,5.624,0,0,1-3.365-5.259,5.463,5.463,0,0,1,5.3-5.608,5.469,5.469,0,0,1,5.257,5.657,5.632,5.632,0,0,1-3.355,5.209,8.24,8.24,0,0,1,6.919,5.829c.142-.17.289-.329.426-.512a11.707,11.707,0,0,0,2.155-4.946,11.766,11.766,0,0,0-.537-6.132A10.957,10.957,0,0,0-341.315,1191.292Z" transform="translate(362.997 -1185.819)" fill="#f68d2f"/>
            <path id="Path_345" data-name="Path 345" d="M-339.035,1194.032a11.624,11.624,0,0,0-1.669-3.137,11.625,11.625,0,0,0-2.62-2.624,12.4,12.4,0,0,0-7.317-2.418,12.393,12.393,0,0,0-7.32,2.417,11.609,11.609,0,0,0-2.621,2.625,11.607,11.607,0,0,0-1.671,3.137,12.331,12.331,0,0,0-.5,6.485,12.136,12.136,0,0,0,2.347,5.155,11.955,11.955,0,0,0,6.791,4.348,9.532,9.532,0,0,0,2.2.27,3.033,3.033,0,0,0,.77-.036,3.358,3.358,0,0,0-.878-.128l1.7.008c-.53.064-.822.072-.819.12a3.033,3.033,0,0,0,.77.036,9.528,9.528,0,0,0,2.2-.27,11.96,11.96,0,0,0,6.792-4.349,12.113,12.113,0,0,0,2.346-5.155A12.317,12.317,0,0,0-339.035,1194.032Zm-.118,6.369a11.71,11.71,0,0,1-2.155,4.946c-.137.183-.284.342-.426.511a8.241,8.241,0,0,0-6.919-5.829,5.632,5.632,0,0,0,3.355-5.209,5.469,5.469,0,0,0-5.258-5.657,5.463,5.463,0,0,0-5.3,5.608,5.624,5.624,0,0,0,3.365,5.258,8.386,8.386,0,0,0-7.042,5.848c-.148-.175-.3-.34-.441-.53a11.714,11.714,0,0,1-2.155-4.946,11.78,11.78,0,0,1,.536-6.133,10.97,10.97,0,0,1,1.6-2.945,10.965,10.965,0,0,1,2.479-2.458,11.718,11.718,0,0,1,6.881-2.258,11.717,11.717,0,0,1,6.878,2.259,10.964,10.964,0,0,1,2.479,2.458,10.958,10.958,0,0,1,1.6,2.944A11.767,11.767,0,0,1-339.154,1200.4Z" transform="translate(362.968 -1185.853)" fill="#fff"/>
          </g>
        </g>
        <g id="Group_299" data-name="Group 299" transform="translate(69.549 121.296)">
          <rect id="Rectangle_95" data-name="Rectangle 95" width="42.234" height="5.487" fill="#fff"/>
          <rect id="Rectangle_96" data-name="Rectangle 96" width="107.238" height="5.487" transform="translate(0 9.157)" fill="#fff"/>
        </g>
        <g id="Group_300" data-name="Group 300" transform="translate(178.086 102.328)">
          <circle id="Ellipse_37" data-name="Ellipse 37" cx="8.667" cy="8.667" r="8.667" transform="translate(0 0)" fill="#1a2e35"/>
          <path id="Path_346" data-name="Path 346" d="M-221.136,1180.678l3.638,3.2,4.85-5" transform="translate(225.559 -1172.712)" fill="none" stroke="#fafafa" stroke-linecap="round" stroke-linejoin="round" stroke-width="1"/>
        </g>
      </g>
      <g id="Globe" transform="translate(0 244.801)">
        <g id="Group_270" data-name="Group 270" transform="translate(9.362 21.112)">
          <path id="Path_303" data-name="Path 303" d="M-444.268,1478.365h0a80.308,80.308,0,0,1-57.161-23.677,80.929,80.929,0,0,1,0-114.32.741.741,0,0,1,1.018,0l8.555,8.555a.72.72,0,0,1,0,1.018.72.72,0,0,1-1.018,0l-8.043-8.043a79.489,79.489,0,0,0,.507,111.772,78.878,78.878,0,0,0,56.142,23.254,78.87,78.87,0,0,0,55.629-22.747l-8.053-8.054a.72.72,0,0,1,0-1.019.72.72,0,0,1,1.018,0l8.565,8.565a.719.719,0,0,1,0,1.018A80.309,80.309,0,0,1-444.268,1478.365Z" transform="translate(525.067 -1328.767)" fill="#e2dcd9"/>
          <circle id="Ellipse_36" data-name="Ellipse 36" cx="68.76" cy="68.76" r="68.76" transform="translate(12.038)" fill="#c4c4c4"/>
          <g id="Group_269" data-name="Group 269" transform="translate(12.424 8.965)" opacity="0.08">
            <g id="Group_268" data-name="Group 268">
              <g id="Group_266" data-name="Group 266" transform="translate(53.195 1.295)">
                <path id="Path_304" data-name="Path 304" d="M-379.394,1385.877c-.973-.937-2.14-.994-3.905.029-1.174.684-4.359,3.71-4.827,4.949-1.087,2.838.887,3.984-1.449,6.506-1.743-1.232-2.139-3.933-2.8-5.735-.742-2-2-4.229-1.8-6.412-1.282,2.745-3.1-.656-4.286-1.657-1.736-1.471-2.846-.807-5.209-1.023a14.832,14.832,0,0,1-2.659-.763c.432.115-.85-.757-.85-.8-.31-.1-.779.453-1.211.3-1.354-.534-3.9-3.286-5.108-2.6.526,1.023,1.556,3.948,2.608,4.531,1.635.909,2.911-.943,4.135-.7a10.437,10.437,0,0,1,2.529,2.421c.216.943-.022.6-.7,1.837a7.986,7.986,0,0,1-3.789,3.638c-1.276.7-4.237,2.594-5.742,2.63-2,.044-1.953-.807-2.8-2.406-.887-1.65-4.783-11.275-6.7-10.18a100.444,100.444,0,0,0,4.633,9.813c.663,1.1,2.542,4.69,3.746,5.18,1.427.584,4.186-.713,5.453-1.1-.619,5.742-5.345,7.939-8.119,12.364-2.5,3.991,2.061,8.609-.958,12.147-.807.944-3.048,1.383-3.6,2.457-.462.886.418,2.241.144,3.228-.36,1.289-1.139.821-1.938,1.959-.642.922-.432,2.248-1.174,3.3a8.192,8.192,0,0,1-5.453,3.774c-3.445.779-3.74.671-4.871-2.349q-1.762-4.712-3.529-9.416c-.879-2.341-.5-3.271.2-5.764.677-2.385.966-3.062-.086-5.324a35.051,35.051,0,0,1-2.032-4.373c-.389-1.284.007-2.234-.173-3.567a3.037,3.037,0,0,0-1.074-2.478c-.267-.238-1.189.252-1.527.079-.382-.2-.634-1.225-1.045-1.3-1.723-.324-4.085.829-6.074.908-3.033.115-5.022.065-7.032-1.794-2.054-1.888-3.725-3.97-3.883-6.766-.346-6.11,4.193-8.343,6.715-13.271.843-1.635.029-2.232,2.126-3.487a6.075,6.075,0,0,1,2.723-.836c3.2-.6,6.564-.741,9.8-1.109-.282,2.435-.484,2.068,1.5,3.265,1.578.951,3.408,1.649,5.072,2.456.562-3.466,5.2-.937,7.753-.706,3.9.346,3.212-1.513,3.876-4.776-1.534.078-3.538.533-5,.051-2.126-.714-1.823-1.636-2.176-3.646-.8.143-1.607.288-2.406.44a3.77,3.77,0,0,1,.158,3.155,18.8,18.8,0,0,1-2.247-2.435c-.317-.519-.353-1.527-.634-1.909-1.037-1.376-3.019-2.507-4.373-3.631-1.614,2.3,2.161,4.085,3.811,4.97-1.563,1.844-2,3.689-4.251,1.7,2.529.158,2.8-.49,1.571-2.226a5.772,5.772,0,0,0-4.935-2.774c-.289.015-.512.785-.8.814-.317.035-1.174-.584-1.434-.447-.173.093-.764-.173-1.016-.065-.143.065.13.987,0,1.1-1.095.98-1.9,2.479-2.867,3.48-1.283,1.347-2.666,2.557-4.647,1.419-1.455-.844-1.974-3.71-1.015-5.216,1.153-1.837,3.71.454,5.381-.785,1.607-1.2-.568-3.141-1.419-4.1a27.987,27.987,0,0,0,3.977-1.52c1.412-.829,1.037-1.484,2.2-2.349.908-.677,1.521-.26,2.118-1.03.865-1.132-1.045-2.328,1.52-2.443-1.4,3.588,4.9,3.156,6.729,1.866.382-.274.044-1.189.325-1.577a7.8,7.8,0,0,1,1.124-.944v-.959h1.225c.822-.605,1.383.5,1.779-.987-1.772.3-2.781.952-3.913-.2-1.607-1.629-.238-2.018,1.189-3.156-2.6-1.859-6.434,3.4-3.249,3.869-.591.735-2.2,3.638-3.084,3.825-1.773.382-1.462-2.074-1.686-3.271-1.174.469-1.974,1.052-2.774.547a2.289,2.289,0,0,1-.627-2.594c.547-.972,3.048-1.3,4.006-2.06.994-.786,1.47-2.32,2.536-3.018,3.653-2.393,10.872-1.514,14.215,1.044-1.52.922-3.415.317-5.087.123.98,1.3,2.349,2.9,4.128,2.327.224-.072.642-1.211,1.059-1.477a19.1,19.1,0,0,1,3.7-1.3,18.289,18.289,0,0,1,10.354-.612c-1.881-5.043,1.16-2.176,4.654-2.789a4.247,4.247,0,0,0,.785-.209A68.647,68.647,0,0,1-379.394,1385.877Z" transform="translate(462.375 -1338.853)"/>
                <path id="Path_305" data-name="Path 305" d="M-448.423,1360.19l-4.208.946c.461-.681,1.711-1.883,1.78-2.63.15-1.6-.694-.765-.98-1.354-1.193-2.469-.547-2.548,1.684-3.788a18.051,18.051,0,0,0,1,4.064C-448.539,1358.542-446.688,1359.064-448.423,1360.19Z" transform="translate(462.83 -1338.411)"/>
                <path id="Path_306" data-name="Path 306" d="M-452.111,1357.091c-1.221,2.106-.223,2.083-3.086,2.546C-454.459,1357.93-454.874,1356-452.111,1357.091Z" transform="translate(462.71 -1338.252)"/>
                <path id="Path_307" data-name="Path 307" d="M-417.331,1345.438c-4.979-1.506,2.831-3.7,3.808-3.945-2.025,0-4.859-.41-6.473,1.184C-421.786,1344.444-419.673,1346.428-417.331,1345.438Z" transform="translate(464.322 -1338.967)"/>
                <path id="Path_308" data-name="Path 308" d="M-439.238,1341.584l1.8-1.42a9.19,9.19,0,0,0-5.05-.552Z" transform="translate(463.304 -1339.058)"/>
                <path id="Path_309" data-name="Path 309" d="M-438.425,1339.078c1.326,1.469,3.126.743,4.889.493C-435.173,1339.347-436.774,1339.185-438.425,1339.078Z" transform="translate(463.493 -1339.078)"/>
                <path id="Path_310" data-name="Path 310" d="M-413.515,1411.791c-1.648,1.485-3.715,2.722-4.2,4.82-.256,1.1-1.052,5.678-.087,6.387,2.235,1.643,2.987-3.436,3.416-4.636C-413.415,1415.642-412.911,1414.553-413.515,1411.791Z" transform="translate(464.434 -1335.683)"/>
              </g>
              <g id="Group_267" data-name="Group 267">
                <path id="Path_311" data-name="Path 311" d="M-456.778,1348.208c1.659.448,2.453-.074,3.95-.742C-453.645,1346.763-458.913,1346.437-456.778,1348.208Z" transform="translate(515.808 -1337.418)"/>
                <path id="Path_312" data-name="Path 312" d="M-467.282,1415.347c-.706,1.974-1.419,3.948-2.126,5.922-2.168,6.037-7.795,11.08-11.858,16.1-2.161,2.673-1.866,3.681-1.8,7.183.08,3.833,1.39,4.186,4.553,6.685-3.883,0-4.827-.086-7.406-3.054-1.794-2.061-2.291-4.237-3.191-6.852-1.787-5.18-1.571-10.627-1.909-16.052-.159-2.572.23-4.1-1.462-5.785-1.074-1.081-2.933-1.477-4-2.566a15.163,15.163,0,0,1-1.852-3.018c-1.83-3.134-2.737-3.984-2.111-7.442.476-2.594,1.788-4.452,3.178-6.758-.353-.835-1.959-4.856-2.7-1.844a15.584,15.584,0,0,1-3.689-2.269c-.534-.569-.634-1.564-1.226-2.082-.525-.461-1.268-.375-1.858-.786a30.828,30.828,0,0,0-2.9-2.384c-1.037-.454-2.449-.05-3.559-.462a68.612,68.612,0,0,1,22.2-43.587c.634.007,1.269.021,1.9.028a2.146,2.146,0,0,0,.217-.008,16.4,16.4,0,0,1,2.1-.058c.663.087,1.095.411.907,1.369a13.751,13.751,0,0,1,2.7-1.477,3.328,3.328,0,0,1,1.4-.144,2.117,2.117,0,0,1,.288.044c-1.34,2.277-1.83,2.082-4.546,2.421.727.633,1.462,1.26,2.19,1.894-1.16.015-2.312.036-3.472.05.3-.612.367-1.34.691-1.944-1.822,1.037-9.034,3.868-9.445,5.576-.6,2.508,3.538,2.2,4.777,2.9,1.887,1.052,1.182,1.341.612,3.732,1.916,0,5.029-6.167,6.261-7.579,1.167-1.341,1.512-2.126,3.652-1.326,2.573.965.526,1.384,1.629,2.961.98-.577,1.959-1.16,2.939-1.736.894,1.938,3.927,5.764,1.484,7.313-2.291,1.455-6.433.95-9.128,2.37,1.074-.158,2.141-.317,3.206-.475a4.786,4.786,0,0,0-.907,2.312h3.048q-2.14.843-4.272,1.686v-1.052c-4.979,1.751-6.354,4.6-9.878,8.163-1.254,1.267-4.373,2.241-5.145,3.725-.95,1.837.792,3.883-.749,5.835-1.13-3.191-.972-5.036-5.071-4.625-2.068.209-6.081,1.232-7.155,2.666-1.29,1.7-1.678,6.325.5,7.457.974.5,2.651-.462,3.437-.865,1.225-.627,1.628-1.3,3.321-1.787q-1.071,2.518-2.139,5.05c1.332.159,2.672.31,4.006.469-.282,1.664-1.239,3.8.8,4.863a13.161,13.161,0,0,0,3.646.5c1.426-.195,3.242-1.059,4.891-1.29a7.606,7.606,0,0,1,4.1.136c2.284.664,8.112,2.673,9.568,4.41,1.088,1.289.7,3.768,1.844,4.993.62.655,2.449.987,3.307,1.319,2.025.763,7.731,2.024,8.156,3.7C-465.02,1411.074-466.871,1414.208-467.282,1415.347Z" transform="translate(513.197 -1337.461)"/>
                <path id="Path_313" data-name="Path 313" d="M-502.243,1383.517c2.937-1.131,4.663,2.291,7.589,1.735C-497.8,1383.609-498.929,1382.24-502.243,1383.517Z" transform="translate(513.708 -1335.732)"/>
                <path id="Path_314" data-name="Path 314" d="M-494.286,1385.5c1.432.154,3.426-.22,3.847,1.315-1.736.311-3.2.813-4.81-.158.541.026,1.115-.214,1.657-.237Z" transform="translate(514.035 -1335.615)"/>
                <path id="Path_315" data-name="Path 315" d="M-498.057,1386.385a14.08,14.08,0,0,1,1.55.342,6.225,6.225,0,0,1-1.55.579Z" transform="translate(513.904 -1335.574)"/>
                <path id="Path_316" data-name="Path 316" d="M-489.939,1386.385a1.348,1.348,0,0,0,1.657.46C-488.83,1386.693-489.382,1386.506-489.939,1386.385Z" transform="translate(514.283 -1335.574)"/>
                <path id="Path_317" data-name="Path 317" d="M-476.493,1359.961l-2.686,2.564,4.649,1.144a8.5,8.5,0,0,0-.241-2.6C-475.171,1360.317-476.645,1361.764-476.493,1359.961Z" transform="translate(514.785 -1336.808)"/>
                <path id="Path_318" data-name="Path 318" d="M-478.865,1347.661l-4.582,2.051c1.332.47,4.3,2.206,5.665,2s3.531-2.638,4.649-3.472c-1.466-1.346-3.468-4.08-5.322-4.734a8.116,8.116,0,0,0-7.449,1.42c.506.426,1.239,1.375,1.87,1.577.44.142,1.212-.667,1.675-.582C-481.027,1346.166-479.292,1346.313-478.865,1347.661Z" transform="translate(514.471 -1337.594)"/>
                <path id="Path_319" data-name="Path 319" d="M-480.6,1346.856c-2.049.589-.808,1.225.588.447Z" transform="translate(514.668 -1337.42)"/>
                <path id="Path_320" data-name="Path 320" d="M-489.339,1347.058c-3.134-2.159,3.283-4.524,5.13-4.524-.945.55-3.048,1.3-3.529,2.18C-488.368,1345.856-486.838,1347.765-489.339,1347.058Z" transform="translate(514.271 -1337.622)"/>
                <path id="Path_321" data-name="Path 321" d="M-464.9,1338.068c-4.215.922-8.076,1.556-11.888,3.473a6.825,6.825,0,0,1-4.841,1.03c-1.2-.086-3.653.109-5.454-.108a66.466,66.466,0,0,1,6.074-4.041.007.007,0,0,0,.007-.007c1.11-.166,2.075-.274,2.672-.346C-474,1337.557-469.271,1338.068-464.9,1338.068Z" transform="translate(514.416 -1337.841)"/>
                <path id="Path_322" data-name="Path 322" d="M-472.467,1341.5a44.422,44.422,0,0,1,10.78-2.328,52.532,52.532,0,0,1,11.5.467c-1.777,1.811-3.766,4.771-6.057,5.865-1.657.791-3.928.445-5.583,1.24-1.285.617-2.452,2.064-3.521,2.994-2.71,2.354-4-.274-3.537-3.068.192-1.147,1.634-3.148.348-4.308C-469.4,1341.589-471.439,1342.368-472.467,1341.5Z" transform="translate(515.099 -1337.785)"/>
              </g>
            </g>
          </g>
          <path id="Path_323" data-name="Path 323" d="M-447.84,1481.931a.719.719,0,0,1-.72-.72v-9.667a.72.72,0,0,1,.72-.721.72.72,0,0,1,.72.721v9.667A.72.72,0,0,1-447.84,1481.931Z" transform="translate(528.639 -1322.666)" fill="#e2dcd9"/>
          <path id="Path_324" data-name="Path 324" d="M-426.3,1480.93c0,1.165-9.247,2.11-20.653,2.11s-20.653-.945-20.653-2.11,9.247-4.074,20.653-4.074S-426.3,1479.764-426.3,1480.93Z" transform="translate(527.75 -1322.385)" fill="#e2dcd9"/>
        </g>
        <g id="Group_272" data-name="Group 272" transform="translate(84.094)">
          <g id="Group_271" data-name="Group 271">
            <path id="Path_325" data-name="Path 325" d="M-435.269,1309.1a18.4,18.4,0,0,0-18.4,18.4c0,10.161,18.4,36.972,18.4,36.972s18.4-26.811,18.4-36.972A18.4,18.4,0,0,0-435.269,1309.1Zm0,26.235a8.648,8.648,0,0,1-8.648-8.648,8.647,8.647,0,0,1,8.648-8.648,8.647,8.647,0,0,1,8.649,8.648A8.648,8.648,0,0,1-435.269,1335.34Z" transform="translate(453.668 -1309.105)" fill="#f68d2f"/>
          </g>
        </g>
        <g id="Group_274" data-name="Group 274" transform="translate(0 31.315)">
          <g id="Group_273" data-name="Group 273" transform="translate(0 0)">
            <path id="Path_326" data-name="Path 326" d="M-530.443,1344.117a14.692,14.692,0,0,0,1.526,20.721c6.144,5.3,31.951,8.162,31.951,8.162s-6.613-25.109-12.756-30.409A14.692,14.692,0,0,0-530.443,1344.117Zm15.863,13.685a6.907,6.907,0,0,1-9.74.718,6.906,6.906,0,0,1-.717-9.741,6.906,6.906,0,0,1,9.74-.717A6.906,6.906,0,0,1-514.58,1357.8Z" transform="translate(534.011 -1339.023)" fill="#f68d2f"/>
          </g>
        </g>
        <g id="Group_276" data-name="Group 276" transform="translate(114.323 78.51)">
          <g id="Group_275" data-name="Group 275">
            <path id="Path_327" data-name="Path 327" d="M-414.48,1386.253c-4.571,3.492-10.308,20.984-10.308,20.984s18.385-.939,22.955-4.432a10.416,10.416,0,0,0,1.953-14.6A10.416,10.416,0,0,0-414.48,1386.253Zm3.717,4.107a4.894,4.894,0,0,1,6.862.918,4.894,4.894,0,0,1-.918,6.862,4.894,4.894,0,0,1-6.862-.918A4.894,4.894,0,0,1-410.763,1390.361Z" transform="translate(424.788 -1384.113)" fill="#f68d2f"/>
          </g>
        </g>
      </g>
      <g id="Group_15911" data-name="Group 15911" transform="translate(260.004 36.946)">
        <g id="Group_192" data-name="Group 192" transform="translate(0 0)">
          <path id="Path_175" data-name="Path 175" d="M-787.744,721.146s7.086-13.591-3.143-22.871-16.661-12.5-17.538-21.264-1.817-34.2-15.816-35.367-17.945.293-24.082,7.892-6.577,11.691-6.869,17.829.585,9.354-5.7,15.054-14.907,12.13-13.738,30.691h2.266s.657-17.392,10.522-22.872c0,0-6.909,13.592-5.391,22.287l21.832-.95,26.818-.219,13.007-1.9a10.851,10.851,0,0,0-1.023-10.888c-3.873-5.554-5.919-8.037-4.6-11.4,5.7,5.991,12.653,9.848,16.222,16.016S-800.6,716.25-787.744,721.146Z" transform="translate(996.278 -549.573)" fill="#271515"/>
          <g id="Group_189" data-name="Group 189" transform="translate(66.792 278.114)">
            <path id="Path_176" data-name="Path 176" d="M-857.7,836.259h-61.528a5.992,5.992,0,0,0-5.992,5.992,5.992,5.992,0,0,0,5.992,5.992h24.552v17.81a4.791,4.791,0,0,0,4.566,4.778V922.85h1.426V936h5.407V922.85h1.426V870.831a4.791,4.791,0,0,0,4.566-4.778v-17.81H-857.7a5.992,5.992,0,0,0,5.991-5.992A5.992,5.992,0,0,0-857.7,836.259Z" transform="translate(931.706 -836.259)" fill="#787a86"/>
            <g id="Group_188" data-name="Group 188" transform="translate(4.165 85.156)">
              <g id="Group_187" data-name="Group 187">
                <path id="Path_177" data-name="Path 177" d="M-847.307,940.277c-1.837-7.111-17.783-12.079-38.782-12.079s-36.945,4.968-38.781,12.079l-2.777-.717c2.712-10.5,24.083-14.23,41.559-14.23s38.846,3.728,41.558,14.23Z" transform="translate(927.648 -925.331)" fill="#787a86"/>
              </g>
            </g>
            <ellipse id="Ellipse_28" data-name="Ellipse 28" cx="5.554" cy="6.153" rx="5.554" ry="6.153" transform="translate(80.725 97.771)" fill="#211111"/>
            <ellipse id="Ellipse_29" data-name="Ellipse 29" cx="5.554" cy="6.153" rx="5.554" ry="6.153" transform="translate(0 97.771)" fill="#211111"/>
            <ellipse id="Ellipse_30" data-name="Ellipse 30" cx="4.131" cy="6.153" rx="4.131" ry="6.153" transform="translate(41.593 97.771)" fill="#211111"/>
          </g>
          <path id="Path_178" data-name="Path 178" d="M-820.84,709.219h23.292c12.1,0,15.385,10.676,8.26,23.719S-803.2,756.285-803.2,756.285l-12.392,28.059s-2.082,8.111-6.138,25.32-12.277,27.512-36.391,27.512-25.428,2.3-25.428,2.3-4.933-16.332-3.618-21.593,11.809-50.758,12.824-50.878,12.167-32.863,13.043-34.178,12.276-21.045,12.276-21.045Z" transform="translate(996.835 -552.56)" fill="#17222d"/>
          <g id="Group_190" data-name="Group 190" transform="translate(174.848)">
            <path id="Path_179" data-name="Path 179" d="M-730.93,944.411s4.384-6.139,4.384-34.929h12.423v28.936l-4.677,8.915h-12.13Z" transform="translate(815.108 -561.364)" fill="#ffd4cb"/>
            <path id="Path_180" data-name="Path 180" d="M-774.762,907.658v14.761l-7.892,9.207-9.5,14.761-8.331-1.023s10.523-26.6,12.13-36.1S-774.762,907.658-774.762,907.658Z" transform="translate(818.166 -561.149)" fill="#fed4c8"/>
            <path id="Path_181" data-name="Path 181" d="M-772.809,951.4V932.988c0-8.33-.877-14.468-4.53-14.03-2.047.878-5.116,3.947-7.308,7.892s-8.476,14.322-10.961,16.807-1.023-3.8-7.746.438-9.207,7.308-9.207,7.308h19.876l10.083-14.322c3.361-4.677,6.139-6.723,6.139-.439V951.4Z" transform="translate(818.697 -561.78)" fill="#211111"/>
            <path id="Path_182" data-name="Path 182" d="M-737.656,951.481l6.43-7.454c3.362-1.168,8.769,2.047,10.158-1.168s5.042-21.191,6.649-22.068,3.069,5.823,3.069,14.457v16.234h-1.9l-.439-7.746s-1.9,7.746-7.453,7.746Z" transform="translate(815.403 -561.858)" fill="#211111"/>
            <path id="Path_183" data-name="Path 183" d="M-734.225,902.489h22.36c7.563-32.992,9.39-52.613,9.39-63.719v-26.6c-1.023-15.345,8.622-34.782,8.622-76.288,0-12.13-5.261-33.322-15.345-41.944h-42.528s-33.321,139.131-35.513,160.321-4.531,47.352-4.531,47.352h22.8c1.9-15.053,10.522-32.006,13.591-53.635h18.853Z" transform="translate(817.782 -551.888)" fill="#708499"/>
            <line id="Line_25" data-name="Line 25" x1="26.367" y2="27.775" transform="translate(6.112 52.794)" fill="none" stroke="#271515" stroke-miterlimit="10" stroke-width="2"/>
            <path id="Path_184" data-name="Path 184" d="M-815.495,635.621a4.612,4.612,0,0,1-3.206-3.371c-.494-1.822-.586-4.371,1.949-5.9,4.274-2.576,6.853-1.691,7.564-.818s2.739,5.038-.494,7.668C-812.017,635.1-813.622,636.088-815.495,635.621Z" transform="translate(818.979 -548.841)" fill="#271515"/>
            <path id="Path_185" data-name="Path 185" d="M-771.211,659.309s.549-5.809-4.932-18.853-7.015-28.819-27.073-27.781c-5.042.818-15.674,6.627-14.469,7.943s7.343-3.618,11.07-4.055c-7.453,4.822-8.659,7.563-2.082,4.493s10.961-3.069,10.3-2.63c-8.44,3.945-13.482,8.111-7.672,6.357a34.624,34.624,0,0,1,9.969-1.753c-8.435,3.069-12.71,5.7-8.983,5.261s7.672-3.288,11.07-.329,7.015,10.3,8.331,19.182,3.178,23.456,3.507,23.347S-771.211,659.309-771.211,659.309Z" transform="translate(818.926 -548.313)" fill="#ffd3c8"/>
            <path id="Path_186" data-name="Path 186" d="M-694.526,675.633a21.89,21.89,0,0,1-6.061,11.157c-6.912,6.75-17.8,8.432-26.6,10.22.526-9.474-4.608-22.237-4.924-22.983l-.009-.038L-753.6,678.6c-16.989,11.291-23.241-.774-30.144-9.207,8.107-1.979,14.36-12.83,15.344-15.239s4.6-14.8,8.767-23.461,10.086-15.124,15.125-15.889c20.277-3.834,36.176-2.954,48.557,2.744S-690.8,659.084-694.526,675.633Z" transform="translate(817.43 -548.306)" fill="#f68d2f"/>
            <path id="Path_187" data-name="Path 187" d="M-794.751,846.085s27.4,9.208,70.807,5.261c2.85-27.841,13.592-158.494,13.592-158.494s6.8,2.3,5.919-4.384-14.578-19.62-16.441-32.773,1.96-28.543,8.646-42.573l-4.384-.445S-726.9,636.294-728,642.979c-12.276.549-22.141.658-22.141.658l9.129-29.528-3.977.7c-5.81,11.948-14.579,32.445-14.03,40.665s2.161,23.616,4.463,30.083-9.615,32.832-13.56,43.684a365.088,365.088,0,0,0-19.4,76.068C-793.106,843.893-794.751,846.085-794.751,846.085Z" transform="translate(817.913 -548.315)" fill="#17222d"/>
            <path id="Path_188" data-name="Path 188" d="M-699.313,619.189s-7.746,4.238-13.884,45.158" transform="translate(814.328 -548.601)" fill="none" stroke="#281616" stroke-miterlimit="10" stroke-width="1"/>
            <path id="Path_189" data-name="Path 189" d="M-765.457,663.69s.5-3.327-2.892-6.267" transform="translate(816.753 -550.282)" fill="none" stroke="#281616" stroke-miterlimit="10" stroke-width="1"/>
            <path id="Path_190" data-name="Path 190" d="M-766.823,654.654s2.748-.074,4.94,3.727" transform="translate(816.686 -550.161)" fill="none" stroke="#281616" stroke-miterlimit="10" stroke-width="1"/>
            <path id="Path_191" data-name="Path 191" d="M-724.778,700.3a7.986,7.986,0,0,1-4.165-7.125,5.378,5.378,0,0,1,4.6-5.8Z" transform="translate(815.02 -551.599)" fill="#281616"/>
            <path id="Path_192-2" data-name="Path 192" d="M-793.342,702.328s6.577-4.823,10.961-7.454a83.867,83.867,0,0,1,16.332-7.562c6.029-1.973,19.84-5.7,23.346-6.467s14.8-4.713,14.8-4.713l1.1,17.976s-30.582,2.74-36.609,3.508c-4.494,6.905-12.057,16.331-15.455,17.537s0-3.947,0-3.947c-5.371,4.932-14.578,6.468-14.469,5.042s5.042-4.494,10.084-7.234c-11.838,5.042-16.661,5.261-5.7-2.192,0,0,6.686-5.151,2.631-4.493S-793.232,704.3-793.342,702.328Z" transform="translate(817.929 -551.105)" fill="#ffd3c8"/>
            <path id="Path_193" data-name="Path 193" d="M-698.213,689.292c-6.912,6.749-17.8,8.432-26.6,10.22l-4.924-22.983-.009-.038L-711,669.368Z" transform="translate(815.055 -550.807)" fill="#f68d2f"/>
            <path id="Path_194" data-name="Path 194" d="M-701.782,680.479a22.692,22.692,0,0,0-11.039-10.187" transform="translate(814.311 -550.848)" fill="none" stroke="#281616" stroke-miterlimit="10" stroke-width="1"/>
            <path id="Path_195" data-name="Path 195" d="M-683.258,605.96a18.965,18.965,0,0,1-2.524,2.629S-691.1,593.36-702.475,591.5c6.941,6.577,15.268,13.92,14.178,19.5-2.409,2.419-3.509,2.084-3.509,2.084s-1.759-12.161-7.562-10.516c2.954,4.493,7.706,14.513,7.706,14.513s-8.881-6.9-26.109-7.314h-20.383l-.01-.01a11.755,11.755,0,0,1,.21-1.491s.067-.344.153-1.09c.115-1.109.268-3.107.287-6.138v-.449c-11.291,0-8.662-18.853-8.662-18.853v-4.6a11.749,11.749,0,0,1-5.7-10.306c0-7.342,14.465-15.832,25.536-15.832s19.188,7.725,19.188,19.56c0,4.273-1.759,8.547,5.918,14.58S-682.493,598.723-683.258,605.96Z" transform="translate(816.028 -545.603)" fill="#271515"/>
            <path id="Path_196" data-name="Path 196" d="M-720.055,587.13s1.864,10.746,2.744,16.664a19.79,19.79,0,0,1-.21,6.654c-1.023,5.038-4.264,10.01-11.74,10.01-8.518,0-8.9-6.9-8.652-10.019a11.785,11.785,0,0,1,.21-1.491s.067-.344.153-1.09c.115-1.109.268-3.107.287-6.138v-.449c-11.291,0-8.662-18.853-8.662-18.853v-15.01s12.61-.879,13.155-.879,8.442,6.683,12.17,11.95a3.244,3.244,0,0,1,5.956,1.635C-714.644,582.417-714.357,586.585-720.055,587.13Z" transform="translate(815.779 -546.286)" fill="#fed2c7"/>
            <path id="Path_197" data-name="Path 197" d="M-721.961,589.8c-1.272,9.513-7.983,15.689-15.191,19.083.115-1.109.268-3.107.287-6.138C-732.43,601.471-724.16,598.048-721.961,589.8Z" transform="translate(815.381 -547.309)" fill="#271515"/>
            <path id="Path_198" data-name="Path 198" d="M-719.122,581.43s3.4-.329,2.52,1.425a9.1,9.1,0,0,1-3.4,3.618" transform="translate(814.627 -546.94)" fill="none" stroke="#271515" stroke-miterlimit="10" stroke-width="1"/>
            <path id="Path_199" data-name="Path 199" d="M-721.716,579.158s-18.419-11.391-24.408-12.053v10.411l-4.6-8.589a45.547,45.547,0,0,1,2.777-4.75c.511-.439,6.868-3.58,8.257-3.8s11.18-.731,11.18-.731l6.8,1.388s.95,5.116.95,6.285-.034,10.856-.034,10.856Z" transform="translate(815.978 -545.983)" fill="#271515"/>
            <path id="Path_200" data-name="Path 200" d="M-720,553.647s2.412-12.824,11.619-6.576-4.129,12.5-7.764,10.413S-720,553.647-720,553.647Z" transform="translate(814.627 -545.355)" fill="#271515"/>
          </g>
          <path id="Path_201" data-name="Path 201" d="M-984.472,905.813s-5.7,30.982-5.261,34.782l4.238,5.407s5.992-4.969,5.992-5.407,4.676-13.446,4.676-13.446l4.677-6.43V905.813Z" transform="translate(1001.335 -561.203)" fill="#fed4c8"/>
          <path id="Path_202" data-name="Path 202" d="M-1001.527,949.992H-981.1s3.957-15.065,7.021-14.938,1.149,14.938,1.149,14.938h2.248l1.327-30.386s-1.66-1.021-3.575,1.533-6.814,12.894-7.556,15.831-1.891,6-6.742,3.574-8.171,2.3-10.6,4.34S-1002.8,949.992-1001.527,949.992Z" transform="translate(1001.868 -561.8)" fill="#211111"/>
          <path id="Path_203" data-name="Path 203" d="M-942.808,905.813s-5.7,30.982-5.261,34.782l4.238,5.407s5.992-4.969,5.992-5.407,4.677-13.446,4.677-13.446l4.676-6.43V905.813Z" transform="translate(999.504 -561.203)" fill="#fed4c8"/>
          <path id="Path_204" data-name="Path 204" d="M-959.863,949.992h20.427s3.958-15.065,7.022-14.938,1.149,14.938,1.149,14.938h2.247l1.328-30.386s-1.659-1.021-3.574,1.533-6.815,12.894-7.557,15.831-1.891,6-6.743,3.574-8.17,2.3-10.6,4.34S-961.14,949.992-959.863,949.992Z" transform="translate(1000.036 -561.8)" fill="#211111"/>
          <path id="Path_205" data-name="Path 205" d="M-911.8,873.295l1.79-5.3s-.219-12.678-.219-12.861-5.7-11.838-5.7-11.838l-9.535-1.571-6.833,12.532S-918.883,874.87-911.8,873.295Z" transform="translate(998.809 -558.385)" fill="#271515"/>
          <path id="Path_206" data-name="Path 206" d="M-986.021,903.729H-969.3l18-37.79,5.49,38.556h14.682s9.192-43.151,8.3-59.238l11.746-9.32-21.959-15.448-21.7-9.575s-12.894,4.34-15.831,14.3S-986.021,903.729-986.021,903.729Z" transform="translate(1001.171 -557.031)" fill="#17222d"/>
          <path id="Path_207" data-name="Path 207" d="M-949.866,866.181s-7.788-38.3-.639-43.407,9.123-6.354,9.123-6.354" transform="translate(999.742 -557.273)" fill="none" stroke="#fff" stroke-miterlimit="10" stroke-width="1"/>
          <path id="Path_208" data-name="Path 208" d="M-901.626,774.246c-.714-12.357,8.615-28.428,11.125-27.845l6.667,9.628-6.718,11.063-6.548,8.927Z" transform="translate(997.462 -554.194)" fill="#271515"/>
          <path id="Path_209" data-name="Path 209" d="M-890.714,764.219A84.494,84.494,0,0,1-913.4,749.642c-11.071-9.974-11.929-6.832-17.209-10.084l-.42-2.082,1.753-1.388,4.019-2.631a36.978,36.978,0,0,1,16,5.042c8.549,4.9,18.541,11.765,18.541,11.765Z" transform="translate(998.753 -553.625)" fill="#ffd3c8"/>
          <path id="Path_210" data-name="Path 210" d="M-913.307,867.329s-3.01-42.74-44.977-58.841c15.486-7.036,63.616-32.315,63.616-32.315l-9.448-3.7c7.66-6,13.406-20.81,10.724-27.96,4.341,1.277,6.256.894,6.256.894,2.936-4.979,7.66-25.279,10.724-28.215s9.192-10.469,25.151-10.852,21.065-1.4,30.768,4.724,14.171,4.724,14.937,20.682,1.4,30,1.4,30c.383,11.491-1.788,17.746-6.383,23.364a96.273,96.273,0,0,1-12.129,11.618c-2.808-1.021-3.83-2.092-5.361,2.018s-9.831,31.814-32.172,34.5-35.747,15.576-52.472,34.087Z" transform="translate(999.952 -552.419)" fill="#f68d2f"/>
          <path id="Path_211" data-name="Path 211" d="M-833.051,794.378c-4.379,1.683-8.891,3.518-11.539,4.885-6.358,3.289-10.356,9.917-12.66,14.085s-.713,12.33-3.562,12.33-.383-9.809-.383-9.809c-3.614,3.184-.6,9.809-3.232,10.574s-.115-11.5-.115-11.5c-1.855,2.294-1.75,12.706-3.394,13.04s-1.75-1.969.765-14.254c-1.31,1.539-2.189,10.421-3.614,9.761s.545-8.117,2.189-10.631c3.289-5.488,6.472-12.39,16.329-19.407a82.7,82.7,0,0,1,11.291-6.692A32.883,32.883,0,0,0-833.051,794.378Z" transform="translate(996.126 -555.969)" fill="#ffd3c8"/>
          <path id="Path_212" data-name="Path 212" d="M-825.136,786.463c-3-1.243-6.262-2.629-7.036-2.964.736-.268,1.138-.4,1.138-.4Z" transform="translate(994.407 -555.808)" fill="#ffd3c8"/>
          <path id="Path_213" data-name="Path 213" d="M-819.631,789.818s-5.879,2.055-12.027,4.417a32.887,32.887,0,0,1-7.925-7.62c3.155-1.558,5.708-2.572,7.084-3.1.775.334,4.034,1.721,7.036,2.964Z" transform="translate(994.733 -555.826)" fill="#ffd3c8"/>
          <path id="Path_214-2" data-name="Path 214" d="M-832.74,783.378a1.464,1.464,0,0,0,.172.067c-1.377.526-3.929,1.539-7.084,3.1-1.405-2.017-1.883-3.575-1.2-4.044,1.682-1.166,6.8-.363,6.8-.363Z" transform="translate(994.802 -555.754)" fill="#271515"/>
          <path id="Path_215" data-name="Path 215" d="M-815.652,797.326l-1.425,2.945s-1.644,1.214-10.631-3.681a38.594,38.594,0,0,1-3.585-2.218c6.147-2.362,12.027-4.417,12.027-4.417l-5.832-3.337c2.371.995,4.6,1.912,5.287,2.151,1.673.583,3.451,4.092,3.451,4.092Z" transform="translate(994.368 -555.962)" fill="#271515"/>
          <path id="Path_216" data-name="Path 216" d="M-817.5,799.95c-1.31-9.234-13.7-18.113-23.341-17.565l2.63-3.069,21.7,4.384,3.916,12.034Z" transform="translate(994.788 -555.641)" fill="#f68d2f"/>
          <path id="Path_217" data-name="Path 217" d="M-808.551,718.625S-823.9,722.72-821.7,759.11" transform="translate(993.956 -552.973)" fill="none" stroke="#271515" stroke-miterlimit="10" stroke-width="1"/>
          <path id="Path_218" data-name="Path 218" d="M-862.894,727.953c.329,5.809-6.9,13.811-8.382,14.8v13.811" transform="translate(996.126 -553.383)" fill="none" stroke="#271515" stroke-miterlimit="10" stroke-width="1"/>
          <path id="Path_219" data-name="Path 219" d="M-869.984,769.454a24.456,24.456,0,0,0-15.454,4.713" transform="translate(996.749 -555.206)" fill="none" stroke="#271515" stroke-miterlimit="10" stroke-width="1"/>
          <path id="Path_220" data-name="Path 220" d="M-874.536,780.068s-12.819-1.924-17.206-.688" transform="translate(997.026 -555.626)" fill="none" stroke="#271515" stroke-miterlimit="10" stroke-width="1"/>
          <path id="Path_221" data-name="Path 221" d="M-831.293,775.333s10.383-4.166,16.63,0" transform="translate(994.368 -555.385)" fill="none" stroke="#271515" stroke-miterlimit="10" stroke-width="1"/>
          <path id="Path_222" data-name="Path 222" d="M-824.331,769.338s10.084-3.981,11.509,0" transform="translate(994.062 -555.125)" fill="none" stroke="#271515" stroke-miterlimit="10" stroke-width="1"/>
          <path id="Path_223" data-name="Path 223" d="M-850.071,660.323c0-.374,1.315-10.6,10.961-7.682s12.943.31,15.9,7.682a9.679,9.679,0,0,1,0,7.517s6.905-3.362,6.391,1.9-6.944,6.723-7.382,6.577c-.585,8.184-1.169,29.375-1.169,29.375s-1.753,3.069-12.423,3.069-9.5-2.338-8.184-10.011l.877-6.464s14.286,1.618,18.414-12.608c-2.192,3.069-9.938,10.376-19.729,8.769-5.261-1.315-5.261-9.75-4.676-13.863S-850.071,660.323-850.071,660.323Z" transform="translate(995.25 -550.049)" fill="#fed2c7"/>
          <g id="Group_191" data-name="Group 191" transform="translate(30.198 146.655)">
            <path id="Path_224" data-name="Path 224" d="M-938.6,745.668s3.288-9.646,16.88-13.738c0,0,1.462-9.353,9.645-12.86l-28.28-20.315s-11.106,7.219-11.4,10c-7.016,1.4-19.291,11.7-18.488,13.015C-962.278,727.108-938.6,745.668-938.6,745.668Z" transform="translate(970.281 -698.755)" fill="#271515"/>
            <path id="Path_225" data-name="Path 225" d="M-939.333,742.425s7.088-12.2,15.857-10.887c-5.773-4.75-28.865-21.775-28.865-21.775s-14.762,2.922-17.94,9.207C-961.84,724.815-939.333,742.425-939.333,742.425Z" transform="translate(970.281 -699.239)" fill="#e9e8f0"/>
            <path id="Path_226" data-name="Path 226" d="M-922.143,730.1s2.425-11.152,9.251-12.262l-26.569-19.086-2.548,2.038a47.3,47.3,0,0,0-6.65,6.481l-1.25,1.485Z" transform="translate(969.385 -698.755)" fill="#e9e8f0"/>
          </g>
          <path id="Path_227" data-name="Path 227" d="M-912.18,737.191s1.261-6.577-.547-8.275-7.782-10.413-8.166-11.4-1.644-2.576-2.357-2.576-1.37,4.768.329,8.331,4.658,6.192,4.658,8.659-5.37,1.644-5.37,1.644l2.028,6.521Z" transform="translate(998.444 -552.811)" fill="#ffd3c8"/>
        </g>
        <g id="Logo_Original" data-name="Logo Original" transform="translate(215.235 249.064)">
          <g id="Group_1" data-name="Group 1" transform="translate(7.986)">
            <path id="Path_1" data-name="Path 1" d="M106,389.824a.38.38,0,0,1-.268-.11l-6.356-6.3-6.356,6.3a.381.381,0,0,1-.537-.541L99.1,382.6a.381.381,0,0,1,.537,0l6.625,6.568a.381.381,0,0,1-.268.652Z" transform="translate(-92.366 -382.493)" fill="#f68e2f"/>
          </g>
          <g id="Group_2" data-name="Group 2" transform="translate(27.223 4.149)">
            <path id="Path_2" data-name="Path 2" d="M310.537,431.008a19.279,19.279,0,0,1-3.359-.108c.739,1.1-.143,2.014-1.025,2.692a14.026,14.026,0,0,1-2.412,1.44c-.2.1-.394.19-.591.28a38.363,38.363,0,0,1-3.895,1.509,16.306,16.306,0,0,1-1.851.388l-.5.082c-1.181.187-2.383.341-2.682.356.832-.26,1.743-.57,2.682-.912l.5-.185c1.928-.719,3.936-1.562,5.606-2.386q.27-.133.529-.266a11.726,11.726,0,0,0,3.03-2s-.9-1.71-1.091-2.039c.031-.072.577-1.422.761-1.926a2.507,2.507,0,0,0,1.009,1.359,6.364,6.364,0,0,0,3.194.33,3.4,3.4,0,0,0,1.462-.278l-.875-1.73.793-1.587a4.4,4.4,0,0,1,.824,1.758A2.649,2.649,0,0,1,310.537,431.008Z" transform="translate(-294.22 -426.03)" fill="#f68e2f"/>
            <path id="Path_3" data-name="Path 3" d="M452.646,490.6l-1.431-1.128-.527.927-1.245-.979-.661,1.1,1.432,1.1.533-.852,1.215.923Z" transform="translate(-434.051 -483.375)" fill="#f68e2f"/>
            <path id="Path_4" data-name="Path 4" d="M464.746,513.166l1.337,1.021-.6,1.025-1.331-1.023Z" transform="translate(-447.961 -504.861)" fill="#f68e2f"/>
          </g>
          <g id="Group_3" data-name="Group 3" transform="translate(0 5.161)">
            <path id="Path_5" data-name="Path 5" d="M13.549,442.419v.544h3.537v.991A3.476,3.476,0,0,1,15,447.142l-.094.04a3.97,3.97,0,0,1-1.484.278,3.644,3.644,0,0,1-3.2-1.436,5.418,5.418,0,0,1-1.1-3.716,5.862,5.862,0,0,1,1.011-3.633,3.791,3.791,0,0,1,3.137-1.545,3.839,3.839,0,0,1,2.655.851,3.591,3.591,0,0,1,.922,1.528l.478-.232a3.714,3.714,0,0,0-1.068-1.622,4.4,4.4,0,0,0-3.009-1.008,4.12,4.12,0,0,0-3.486,1.721,6.292,6.292,0,0,0-1.2,3.94,6.136,6.136,0,0,0,1.189,3.963,4.134,4.134,0,0,0,3.527,1.6,5.749,5.749,0,0,0,1.107-.111,5.29,5.29,0,0,0,.925-.269,3.769,3.769,0,0,0,2.322-3.48v-1.6Z" transform="translate(-8.57 -436.648)" fill="#fff"/>
            <path id="Path_6" data-name="Path 6" d="M125.512,453.189v4.258h6.81v-4.258h.488V462.6h-.488V457.9h-6.81V462.6h-.489v-9.414Z" transform="translate(-113.925 -451.613)" fill="#fff"/>
            <path id="Path_7" data-name="Path 7" d="M223.677,439.556h-.562L219,450.27h.474l3.908-10.116h.032l3.83,10.116h.5Z" transform="translate(-198.946 -439.279)" fill="#fff"/>
            <path id="Path_8" data-name="Path 8" d="M329,446.139a1.589,1.589,0,0,0-1.306-1.115v-.031a2.452,2.452,0,0,0,1.438-.987,2.5,2.5,0,0,0,.471-1.6,2.547,2.547,0,0,0-.708-2.1,3.223,3.223,0,0,0-2.32-.755H322.36v10.714h.5v-5.039h3.7a2.392,2.392,0,0,1,1.5.426,1.185,1.185,0,0,1,.412.744,8.247,8.247,0,0,1,.14,1.148c0,.008,0,.015,0,.023s.053.629.053,2.763h.535c0-1.181.058-2.221,0-3.066A4.33,4.33,0,0,0,329,446.139Zm-2.453-1.345h-3.681v-4.767h3.667a2.9,2.9,0,0,1,2.036.694,2.752,2.752,0,0,1-.043,3.394A2.892,2.892,0,0,1,326.545,444.795Z" transform="translate(-292.456 -439.282)" fill="#fff"/>
            <path id="Path_9" data-name="Path 9" d="M387.191,509.734c-.2.1-.393.19-.591.28a8.248,8.248,0,0,0-.14-1.148q.27-.133.529-.266A4.324,4.324,0,0,1,387.191,509.734Z" transform="translate(-350.447 -501.743)" fill="#fff"/>
          </g>
        </g>
      </g>
    </g>
  </g>
</svg>
