<svg xmlns="http://www.w3.org/2000/svg" width="30" height="30" viewBox="0 0 30 30">
  <g id="Group_15934" data-name="Group 15934" transform="translate(-1066 -695)">
    <rect id="Rectangle" width="30" height="30" rx="5" transform="translate(1066 695)" fill="#fff"/>
    <g id="_7089163_gmail_google_icon" data-name="7089163_gmail_google_icon" transform="translate(1068 695)">
      <path id="Path_11020" data-name="Path 11020" d="M39.583,16.2l-2.292,1.26L35,19.638v7.471h3.208a1.375,1.375,0,0,0,1.375-1.375Z" transform="translate(-17.333 -4.442)" fill="#4caf50"/>
      <path id="Path_11021" data-name="Path 11021" d="M3,16.2l1.656.784,2.927,2.654v7.471H4.375A1.375,1.375,0,0,1,3,25.733Z" transform="translate(0 -4.442)" fill="#1e88e5"/>
      <path id="Path_11022" data-name="Path 11022" d="M22.542,11.2,17.5,14.981,12.458,11.2,12,13.858l.458,3.071L17.5,20.71l5.042-3.781L23,13.858Z" transform="translate(-4.875 -1.733)" fill="#e53935"/>
      <path id="Path_11023" data-name="Path 11023" d="M3,9.97v1.788L7.583,15.2V9.467L6.152,8.394A1.969,1.969,0,0,0,4.97,8h0A1.97,1.97,0,0,0,3,9.97Z" fill="#c62828"/>
      <path id="Path_11024" data-name="Path 11024" d="M39.583,9.97v1.788L35,15.2V9.467l1.432-1.073A1.969,1.969,0,0,1,37.613,8h0A1.97,1.97,0,0,1,39.583,9.97Z" transform="translate(-17.333)" fill="#fbc02d"/>
    </g>
  </g>
</svg>
