<svg xmlns="http://www.w3.org/2000/svg" xmlns:xlink="http://www.w3.org/1999/xlink" width="30" height="30" viewBox="0 0 30 30">
  <defs>
    <radialGradient id="radial-gradient" cx="0.293" cy="1.077" r="1.325" gradientTransform="translate(0 0)" gradientUnits="objectBoundingBox">
      <stop offset="0.097" stop-color="#ffd87a"/>
      <stop offset="0.143" stop-color="#fcce78"/>
      <stop offset="0.226" stop-color="#f5b471"/>
      <stop offset="0.338" stop-color="#eb8d65"/>
      <stop offset="0.449" stop-color="#e36058"/>
      <stop offset="0.679" stop-color="#cd3694"/>
      <stop offset="1" stop-color="#6668b0"/>
    </radialGradient>
  </defs>
  <g id="Group_15935" data-name="Group 15935" transform="translate(-1106 -695)">
    <rect id="Rectangle" width="30" height="30" rx="5" transform="translate(1106 695)" fill="url(#radial-gradient)"/>
    <g id="Group_15922" data-name="Group 15922" transform="translate(1040.5 629.4)">
      <path id="Path_11017" data-name="Path 11017" d="M84.458,70.6H76.715A6.217,6.217,0,0,0,70.5,76.815v7.738a6.209,6.209,0,0,0,6.215,6.21h7.738a6.208,6.208,0,0,0,6.21-6.21V76.815A6.2,6.2,0,0,0,84.458,70.6Zm4.274,13.208a5.017,5.017,0,0,1-5.019,5.019H77.46a5.017,5.017,0,0,1-5.019-5.019V77.555a5.017,5.017,0,0,1,5.019-5.019h6.253a5.021,5.021,0,0,1,5.019,5.019Z" fill="#fff"/>
      <path id="Path_11018" data-name="Path 11018" d="M168.613,159a5.313,5.313,0,1,0,5.313,5.313A5.31,5.31,0,0,0,168.613,159Zm0,8.5a3.2,3.2,0,1,1,3.2-3.2A3.2,3.2,0,0,1,168.613,167.5Z" transform="translate(-87.754 -83.593)" fill="#fff"/>
      <path id="Path_11019" data-name="Path 11019" d="M329.8,133.954a1.349,1.349,0,1,1-1.349-1.354A1.348,1.348,0,0,1,329.8,133.954Z" transform="translate(-242.647 -58.629)" fill="#fff"/>
    </g>
  </g>
</svg>
