<svg xmlns="http://www.w3.org/2000/svg" xmlns:xlink="http://www.w3.org/1999/xlink" width="150" height="30" viewBox="0 0 150 30">
  <defs>
    <radialGradient id="radial-gradient" cx="0.293" cy="1.077" r="1.325" gradientTransform="translate(0 0)" gradientUnits="objectBoundingBox">
      <stop offset="0.097" stop-color="#ffd87a"/>
      <stop offset="0.143" stop-color="#fcce78"/>
      <stop offset="0.226" stop-color="#f5b471"/>
      <stop offset="0.338" stop-color="#eb8d65"/>
      <stop offset="0.449" stop-color="#e36058"/>
      <stop offset="0.679" stop-color="#cd3694"/>
      <stop offset="1" stop-color="#6668b0"/>
    </radialGradient>
  </defs>
  <g id="Group_15927" data-name="Group 15927" transform="translate(-986 -695)">
    <g id="Group_15925" data-name="Group 15925">
      <rect id="Rectangle" width="30" height="30" rx="5" transform="translate(986 695)" fill="#1c4b8d"/>
      <g id="_216078_facebook_social_icon" data-name="216078_facebook_social_icon" transform="translate(988 695)">
        <path id="Path_11015" data-name="Path 11015" d="M15,12h4v4H15v9.333H11V16H7V12h4V10.327a7.558,7.558,0,0,1,1.491-4.683A4.8,4.8,0,0,1,16.205,4H19V8H16.2A1.2,1.2,0,0,0,15,9.2Z" transform="translate(0)" fill="#fff"/>
      </g>
    </g>
    <g id="Group_15924" data-name="Group 15924">
      <rect id="Rectangle-2" data-name="Rectangle" width="30" height="30" rx="5" transform="translate(1026 695)" fill="#1da1f2"/>
      <path id="Logo__x2014__FIXED" d="M101.308,139.36a9.565,9.565,0,0,0,9.627-9.627c0-.145,0-.29-.007-.436a6.893,6.893,0,0,0,1.689-1.755,6.857,6.857,0,0,1-1.947.534,3.4,3.4,0,0,0,1.491-1.874,6.731,6.731,0,0,1-2.151.818,3.385,3.385,0,0,0-5.853,2.316,3.74,3.74,0,0,0,.086.772,9.609,9.609,0,0,1-6.975-3.537,3.4,3.4,0,0,0,1.049,4.52,3.423,3.423,0,0,1-1.531-.422v.046a3.391,3.391,0,0,0,2.712,3.319,3.4,3.4,0,0,1-1.524.059,3.384,3.384,0,0,0,3.161,2.349,6.787,6.787,0,0,1-4.2,1.452,6.512,6.512,0,0,1-.805-.046,9.625,9.625,0,0,0,5.18,1.511" transform="translate(936.872 577.048)" fill="#fff"/>
    </g>
    <g id="Group_15926" data-name="Group 15926">
      <rect id="Rectangle-3" data-name="Rectangle" width="30" height="30" rx="5" transform="translate(1106 695)" fill="url(#radial-gradient)"/>
      <g id="Group_15922" data-name="Group 15922" transform="translate(1040.5 629.4)">
        <path id="Path_11017" data-name="Path 11017" d="M84.458,70.6H76.715A6.217,6.217,0,0,0,70.5,76.815v7.738a6.209,6.209,0,0,0,6.215,6.21h7.738a6.208,6.208,0,0,0,6.21-6.21V76.815A6.2,6.2,0,0,0,84.458,70.6Zm4.274,13.208a5.017,5.017,0,0,1-5.019,5.019H77.46a5.017,5.017,0,0,1-5.019-5.019V77.555a5.017,5.017,0,0,1,5.019-5.019h6.253a5.021,5.021,0,0,1,5.019,5.019Z" fill="#fff"/>
        <path id="Path_11018" data-name="Path 11018" d="M168.613,159a5.313,5.313,0,1,0,5.313,5.313A5.31,5.31,0,0,0,168.613,159Zm0,8.5a3.2,3.2,0,1,1,3.2-3.2A3.2,3.2,0,0,1,168.613,167.5Z" transform="translate(-87.754 -83.593)" fill="#fff"/>
        <path id="Path_11019" data-name="Path 11019" d="M329.8,133.954a1.349,1.349,0,1,1-1.349-1.354A1.348,1.348,0,0,1,329.8,133.954Z" transform="translate(-242.647 -58.629)" fill="#fff"/>
      </g>
    </g>
    <g id="Group_15923" data-name="Group 15923">
      <rect id="Rectangle-4" data-name="Rectangle" width="30" height="30" rx="5" transform="translate(1066 695)" fill="#fff"/>
      <g id="_7089163_gmail_google_icon" data-name="7089163_gmail_google_icon" transform="translate(1068 695)">
        <path id="Path_11020" data-name="Path 11020" d="M39.583,16.2l-2.292,1.26L35,19.638v7.471h3.208a1.375,1.375,0,0,0,1.375-1.375Z" transform="translate(-17.333 -4.442)" fill="#4caf50"/>
        <path id="Path_11021" data-name="Path 11021" d="M3,16.2l1.656.784,2.927,2.654v7.471H4.375A1.375,1.375,0,0,1,3,25.733Z" transform="translate(0 -4.442)" fill="#1e88e5"/>
        <path id="Path_11022" data-name="Path 11022" d="M22.542,11.2,17.5,14.981,12.458,11.2,12,13.858l.458,3.071L17.5,20.71l5.042-3.781L23,13.858Z" transform="translate(-4.875 -1.733)" fill="#e53935"/>
        <path id="Path_11023" data-name="Path 11023" d="M3,9.97v1.788L7.583,15.2V9.467L6.152,8.394A1.969,1.969,0,0,0,4.97,8h0A1.97,1.97,0,0,0,3,9.97Z" fill="#c62828"/>
        <path id="Path_11024" data-name="Path 11024" d="M39.583,9.97v1.788L35,15.2V9.467l1.432-1.073A1.969,1.969,0,0,1,37.613,8h0A1.97,1.97,0,0,1,39.583,9.97Z" transform="translate(-17.333)" fill="#fbc02d"/>
      </g>
    </g>
  </g>
</svg>
