<svg xmlns="http://www.w3.org/2000/svg" width="30" height="30" viewBox="0 0 30 30">
  <g id="Group_15933" data-name="Group 15933" transform="translate(-1026 -695)">
    <rect id="Rectangle" width="30" height="30" rx="5" transform="translate(1026 695)" fill="#1da1f2"/>
    <path id="Logo__x2014__FIXED" d="M101.308,139.36a9.565,9.565,0,0,0,9.627-9.627c0-.145,0-.29-.007-.436a6.893,6.893,0,0,0,1.689-1.755,6.857,6.857,0,0,1-1.947.534,3.4,3.4,0,0,0,1.491-1.874,6.731,6.731,0,0,1-2.151.818,3.385,3.385,0,0,0-5.853,2.316,3.74,3.74,0,0,0,.086.772,9.609,9.609,0,0,1-6.975-3.537,3.4,3.4,0,0,0,1.049,4.52,3.423,3.423,0,0,1-1.531-.422v.046a3.391,3.391,0,0,0,2.712,3.319,3.4,3.4,0,0,1-1.524.059,3.384,3.384,0,0,0,3.161,2.349,6.787,6.787,0,0,1-4.2,1.452,6.512,6.512,0,0,1-.805-.046,9.625,9.625,0,0,0,5.18,1.511" transform="translate(936.872 577.048)" fill="#fff"/>
  </g>
</svg>
